M48
; DRILL file {KiCad 9.0.6} date 2026-09-15T03:16:16+0530
; FORMAT={-:-/ absolute / metric / decimal}
; #@! TF.CreationDate,2026-09-15T03:16:16+05:30
; #@! TF.GenerationSoftware,Kicad,Pcbnew,9.0.6
; #@! TF.FileFunction,Plated,1,2,PTH
FMAT,2
METRIC
; #@! TA.AperFunction,Plated,PTH,ViaDrill
T1C0.800
; #@! TA.AperFunction,Plated,PTH,ComponentDrill
T2C0.800
; #@! TA.AperFunction,Plated,PTH,ComponentDrill
T3C1.000
; #@! TA.AperFunction,Plated,PTH,ComponentDrill
T4C1.200
; #@! TA.AperFunction,Plated,PTH,ViaDrill
T5C1.500
%
G90
G05
T1
X75.262Y-106.574
X75.262Y-135.824
X79.512Y-105.074
X79.512Y-135.574
X90.012Y-96.324
X90.012Y-125.074
X111.012Y-120.824
X111.012Y-127.574
X111.262Y-50.824
X111.262Y-64.324
X111.262Y-115.074
X114.262Y-121.574
X114.512Y-126.824
X115.512Y-75.574
X115.539Y-77.574
X117.682Y-107.904
X118.012Y-91.824
X120.142Y-115.074
X123.262Y-92.074
X123.262Y-104.028
X126.233Y-91.906
X126.306Y-107.991
X128.262Y-75.824
X128.262Y-131.074
X128.262Y-142.074
X128.629Y-59.456
X128.754Y-53.581
X128.784Y-77.651
X131.256Y-105.274
X131.262Y-81.074
X132.262Y-63.824
X132.339Y-50.685
X134.262Y-104.152
X134.319Y-110.281
X134.512Y-121.074
X135.262Y-59.324
X135.262Y-70.324
X142.262Y-59.55
X143.012Y-121.074
X144.224Y-55.413
X144.762Y-64.824
X144.762Y-72.324
X144.762Y-112.8
X144.774Y-95.836
X144.881Y-104.693
X145.262Y-123.974
X145.262Y-130.324
X147.262Y-107.078
X147.262Y-111.324
X147.762Y-57.324
X149.312Y-99.574
X149.312Y-109.824
X152.262Y-59.324
X152.262Y-67.324
X152.262Y-77.324
X153.012Y-104.324
X154.254Y-106.816
X154.27Y-55.331
X155.762Y-79.824
X155.762Y-90.324
X156.762Y-57.324
X157.688Y-77.798
X157.762Y-88.824
X158.512Y-106.762
X158.762Y-52.824
X158.762Y-127.324
X158.762Y-133.824
X159.274Y-104.324
X159.29Y-111.915
X161.762Y-54.824
X161.762Y-100.824
X161.762Y-107.324
X162.623Y-80.963
X162.762Y-70.324
X163.262Y-57.324
X163.762Y-104.324
X164.762Y-88.824
X164.762Y-91.824
X169.1Y-98.965
X169.169Y-101.371
X169.262Y-88.824
X169.262Y-91.824
X169.628Y-50.923
X171.762Y-125.324
X171.762Y-131.324
X172.262Y-52.824
X174.262Y-98.824
X174.262Y-101.324
X174.262Y-104.324
X178.762Y-124.824
X178.762Y-131.324
X180.262Y-57.324
X184.925Y-89.824
X185.262Y-123.324
X185.262Y-131.864
X185.762Y-120.824
X188.762Y-89.824
X190.762Y-114.824
X197.262Y-110.324
X197.262Y-116.324
T2
X60.762Y-61.994
X60.762Y-64.534
X60.762Y-67.074
X60.762Y-69.614
X60.762Y-72.154
X60.762Y-74.694
X60.762Y-77.234
X60.762Y-79.774
X60.762Y-82.314
X60.762Y-84.854
X60.762Y-87.394
X60.762Y-89.934
X60.762Y-92.474
X60.762Y-95.014
X60.762Y-97.554
X85.762Y-61.994
X85.762Y-64.534
X85.762Y-67.074
X85.762Y-69.614
X85.762Y-72.154
X85.762Y-74.694
X85.762Y-77.234
X85.762Y-79.774
X85.762Y-82.314
X85.762Y-84.854
X85.762Y-87.394
X85.762Y-89.934
X85.762Y-92.474
X85.762Y-95.014
X85.762Y-97.554
X94.142Y-84.324
X94.142Y-86.864
X94.642Y-77.324
X94.642Y-79.864
X94.947Y-70.559
X94.947Y-73.099
X101.762Y-84.324
X101.762Y-86.864
X102.262Y-77.324
X102.262Y-79.864
X102.567Y-70.559
X102.567Y-73.099
X137.144Y-138.824
X137.262Y-128.324
X139.644Y-138.824
X139.762Y-128.324
T3
X139.522Y-72.624
X139.522Y-75.164
X139.522Y-77.704
X139.522Y-80.244
X139.522Y-82.784
X139.522Y-85.324
X139.522Y-87.864
X139.522Y-90.404
X139.522Y-92.944
X139.522Y-95.484
X139.522Y-98.024
X139.522Y-100.564
X139.522Y-103.104
X139.522Y-105.644
X139.522Y-108.184
X139.522Y-110.724
X142.062Y-72.624
X142.062Y-75.164
X142.062Y-77.704
X142.062Y-80.244
X142.062Y-82.784
X142.062Y-85.324
X142.062Y-87.864
X142.062Y-90.404
X142.062Y-92.944
X142.062Y-95.484
X142.062Y-98.024
X142.062Y-100.564
X142.062Y-103.104
X142.062Y-105.644
X142.062Y-108.184
X142.062Y-110.724
X147.022Y-62.284
X147.022Y-64.824
X147.658Y-122.553
X147.658Y-141.095
X149.562Y-62.284
X149.562Y-64.824
X150.198Y-122.553
X150.198Y-141.095
X152.102Y-62.284
X152.102Y-64.824
X154.642Y-62.284
X154.642Y-64.824
X157.182Y-62.284
X157.182Y-64.824
X158.326Y-122.553
X158.326Y-141.095
X159.722Y-62.284
X159.722Y-64.824
X160.866Y-122.553
X160.866Y-141.095
X162.262Y-62.284
X162.262Y-64.824
X164.802Y-62.284
X164.802Y-64.824
X167.158Y-122.053
X167.158Y-140.595
X167.342Y-62.284
X167.342Y-64.824
X169.698Y-122.053
X169.698Y-140.595
X169.882Y-62.284
X169.882Y-64.824
X172.422Y-62.284
X172.422Y-64.824
X174.962Y-62.284
X174.962Y-64.824
X177.762Y-67.544
X177.762Y-70.084
X177.762Y-72.624
X177.762Y-75.164
X177.762Y-77.704
X177.762Y-80.244
X177.762Y-82.784
X177.762Y-85.324
X177.762Y-87.864
X177.762Y-90.404
X177.762Y-92.944
X177.762Y-95.484
X177.762Y-98.024
X177.762Y-100.564
X177.762Y-103.104
X177.762Y-105.644
X177.762Y-108.184
X177.762Y-110.724
X177.826Y-122.053
X177.826Y-140.595
X180.302Y-67.544
X180.302Y-70.084
X180.302Y-72.624
X180.302Y-75.164
X180.302Y-77.704
X180.302Y-80.244
X180.302Y-82.784
X180.302Y-85.324
X180.302Y-87.864
X180.302Y-90.404
X180.302Y-92.944
X180.302Y-95.484
X180.302Y-98.024
X180.302Y-100.564
X180.302Y-103.104
X180.302Y-105.644
X180.302Y-108.184
X180.302Y-110.724
X180.366Y-122.053
X180.366Y-140.595
T4
X94.642Y-96.324
X97.182Y-96.324
X99.722Y-96.324
X102.262Y-96.324
X117.682Y-110.574
X117.682Y-119.324
X118.062Y-64.074
X118.142Y-71.574
X118.142Y-89.364
X118.472Y-81.824
X119.722Y-130.574
X120.222Y-110.574
X120.222Y-119.324
X120.602Y-64.074
X120.682Y-71.574
X120.682Y-89.364
X121.012Y-81.824
X121.979Y-137.059
X121.979Y-139.599
X122.262Y-130.574
X122.762Y-110.574
X122.762Y-119.324
X123.142Y-64.074
X123.222Y-71.574
X123.222Y-89.364
X123.552Y-81.824
X124.802Y-130.574
X125.302Y-110.574
X125.302Y-119.324
X125.682Y-64.074
X125.762Y-71.574
X125.762Y-89.364
X126.092Y-81.824
X127.842Y-110.574
X127.842Y-119.324
X128.222Y-64.074
X136.282Y-53.374
X138.822Y-53.374
X141.362Y-53.374
X188.722Y-135.324
X189.682Y-106.324
X189.682Y-123.324
X190.052Y-96.566
X190.722Y-66.324
X190.722Y-85.324
X190.862Y-75.284
X191.262Y-135.324
X192.222Y-106.324
X192.222Y-123.324
X192.592Y-96.566
X193.262Y-66.324
X193.262Y-85.324
X193.402Y-75.284
X194.762Y-106.324
X194.762Y-123.324
X195.132Y-96.566
X195.802Y-66.324
X195.802Y-85.324
X195.942Y-75.284
X197.302Y-106.324
X197.302Y-123.324
X197.672Y-96.566
T5
X106.262Y-138.324
X114.111Y-130.498
X133.762Y-134.074
X142.512Y-134.074
M30
