%TF.GenerationSoftware,KiCad,Pcbnew,9.0.6*%
%TF.CreationDate,2026-09-15T03:16:13+05:30*%
%TF.ProjectId,sensor_board - Copy,73656e73-6f72-45f6-926f-617264202d20,rev?*%
%TF.SameCoordinates,Original*%
%TF.FileFunction,Copper,L1,Top*%
%TF.FilePolarity,Positive*%
%FSLAX46Y46*%
G04 Gerber Fmt 4.6, Leading zero omitted, Abs format (unit mm)*
G04 Created by KiCad (PCBNEW 9.0.6) date 2026-09-15 03:16:13*
%MOMM*%
%LPD*%
G01*
G04 APERTURE LIST*
G04 Aperture macros list*
%AMRoundRect*
0 Rectangle with rounded corners*
0 $1 Rounding radius*
0 $2 $3 $4 $5 $6 $7 $8 $9 X,Y pos of 4 corners*
0 Add a 4 corners polygon primitive as box body*
4,1,4,$2,$3,$4,$5,$6,$7,$8,$9,$2,$3,0*
0 Add four circle primitives for the rounded corners*
1,1,$1+$1,$2,$3*
1,1,$1+$1,$4,$5*
1,1,$1+$1,$6,$7*
1,1,$1+$1,$8,$9*
0 Add four rect primitives between the rounded corners*
20,1,$1+$1,$2,$3,$4,$5,0*
20,1,$1+$1,$4,$5,$6,$7,0*
20,1,$1+$1,$6,$7,$8,$9,0*
20,1,$1+$1,$8,$9,$2,$3,0*%
G04 Aperture macros list end*
%TA.AperFunction,ComponentPad*%
%ADD10RoundRect,0.250000X-0.750000X-0.750000X0.750000X-0.750000X0.750000X0.750000X-0.750000X0.750000X0*%
%TD*%
%TA.AperFunction,ComponentPad*%
%ADD11C,2.000000*%
%TD*%
%TA.AperFunction,ComponentPad*%
%ADD12RoundRect,0.250000X0.550000X0.550000X-0.550000X0.550000X-0.550000X-0.550000X0.550000X-0.550000X0*%
%TD*%
%TA.AperFunction,ComponentPad*%
%ADD13C,1.600000*%
%TD*%
%TA.AperFunction,ComponentPad*%
%ADD14RoundRect,0.250000X-0.550000X-0.550000X0.550000X-0.550000X0.550000X0.550000X-0.550000X0.550000X0*%
%TD*%
%TA.AperFunction,ComponentPad*%
%ADD15C,1.905000*%
%TD*%
%TA.AperFunction,ComponentPad*%
%ADD16RoundRect,0.250000X0.750000X0.750000X-0.750000X0.750000X-0.750000X-0.750000X0.750000X-0.750000X0*%
%TD*%
%TA.AperFunction,ComponentPad*%
%ADD17RoundRect,0.250000X0.750000X-0.750000X0.750000X0.750000X-0.750000X0.750000X-0.750000X-0.750000X0*%
%TD*%
%TA.AperFunction,ComponentPad*%
%ADD18C,1.900000*%
%TD*%
%TA.AperFunction,ViaPad*%
%ADD19C,1.700000*%
%TD*%
%TA.AperFunction,ViaPad*%
%ADD20C,2.000000*%
%TD*%
%TA.AperFunction,Conductor*%
%ADD21C,2.000000*%
%TD*%
%TA.AperFunction,Conductor*%
%ADD22C,0.750000*%
%TD*%
%TA.AperFunction,Conductor*%
%ADD23C,1.000000*%
%TD*%
%TA.AperFunction,Conductor*%
%ADD24C,4.000000*%
%TD*%
G04 APERTURE END LIST*
D10*
%TO.P,J14,1,Pin_1*%
%TO.N,/5v*%
X190721946Y-66323614D03*
D11*
%TO.P,J14,2,Pin_2*%
%TO.N,GND*%
X193261946Y-66323614D03*
%TO.P,J14,3,Pin_3*%
%TO.N,Net-(J14-Pin_3)*%
X195801946Y-66323614D03*
%TD*%
D12*
%TO.P,U2,1*%
%TO.N,Net-(R1-Pad2)*%
X102566946Y-73098614D03*
D13*
%TO.P,U2,2*%
%TO.N,GND*%
X102566946Y-70558614D03*
%TO.P,U2,3*%
X94946946Y-70558614D03*
%TO.P,U2,4*%
%TO.N,Net-(J16-Pin_2)*%
X94946946Y-73098614D03*
%TD*%
D14*
%TO.P,C1,1*%
%TO.N,+12V*%
X137144269Y-138823614D03*
D13*
%TO.P,C1,2*%
%TO.N,GND*%
X139644269Y-138823614D03*
%TD*%
D15*
%TO.P,MP1_5,1,Vin*%
%TO.N,+12V*%
X167157946Y-140594614D03*
%TO.P,MP1_5,2*%
X169697946Y-140594614D03*
%TO.P,MP1_5,3*%
%TO.N,GND*%
X177825946Y-140594614D03*
%TO.P,MP1_5,4,GND*%
X180365946Y-140594614D03*
%TO.P,MP1_5,5,Vout*%
%TO.N,/5v*%
X167157946Y-122052614D03*
%TO.P,MP1_5,6*%
X169697946Y-122052614D03*
%TO.P,MP1_5,7*%
%TO.N,GND*%
X177825946Y-122052614D03*
%TO.P,MP1_5,8,GND*%
X180365946Y-122052614D03*
%TD*%
D10*
%TO.P,J7,1,Pin_1*%
%TO.N,Net-(J10-Pin_1)*%
X117681946Y-110573614D03*
D11*
%TO.P,J7,2,Pin_2*%
%TO.N,GND*%
X120221946Y-110573614D03*
%TO.P,J7,3,Pin_3*%
X122761946Y-110573614D03*
%TO.P,J7,4,Pin_4*%
%TO.N,Net-(J3-Pin_3)*%
X125301946Y-110573614D03*
%TO.P,J7,5,Pin_5*%
%TO.N,Net-(J3-Pin_4)*%
X127841946Y-110573614D03*
%TD*%
D10*
%TO.P,J6,1,Pin_1*%
%TO.N,Net-(J10-Pin_1)*%
X118471946Y-81823614D03*
D11*
%TO.P,J6,2,Pin_2*%
%TO.N,GND*%
X121011946Y-81823614D03*
%TO.P,J6,3,Pin_3*%
%TO.N,Net-(J3-Pin_3)*%
X123551946Y-81823614D03*
%TO.P,J6,4,Pin_4*%
%TO.N,Net-(J3-Pin_4)*%
X126091946Y-81823614D03*
%TD*%
D15*
%TO.P,MP2_3.3,1,Vin*%
%TO.N,+12V*%
X147657946Y-141094614D03*
%TO.P,MP2_3.3,2*%
X150197946Y-141094614D03*
%TO.P,MP2_3.3,3*%
%TO.N,GND*%
X158325946Y-141094614D03*
%TO.P,MP2_3.3,4,GND*%
X160865946Y-141094614D03*
%TO.P,MP2_3.3,5,Vout*%
%TO.N,/3v3*%
X147657946Y-122552614D03*
%TO.P,MP2_3.3,6*%
X150197946Y-122552614D03*
%TO.P,MP2_3.3,7*%
%TO.N,GND*%
X158325946Y-122552614D03*
%TO.P,MP2_3.3,8,GND*%
X160865946Y-122552614D03*
%TD*%
D10*
%TO.P,J3,1,Pin_1*%
%TO.N,Net-(J10-Pin_1)*%
X118141946Y-71573614D03*
D11*
%TO.P,J3,2,Pin_2*%
%TO.N,GND*%
X120681946Y-71573614D03*
%TO.P,J3,3,Pin_3*%
%TO.N,Net-(J3-Pin_3)*%
X123221946Y-71573614D03*
%TO.P,J3,4,Pin_4*%
%TO.N,Net-(J3-Pin_4)*%
X125761946Y-71573614D03*
%TD*%
D16*
%TO.P,J11,1,Pin_1*%
%TO.N,Net-(J10-Pin_1)*%
X197301946Y-106323614D03*
D11*
%TO.P,J11,2,Pin_2*%
%TO.N,GND*%
X194761946Y-106323614D03*
%TO.P,J11,3,Pin_3*%
%TO.N,Net-(J11-Pin_3)*%
X192221946Y-106323614D03*
%TO.P,J11,4,Pin_4*%
%TO.N,Net-(J11-Pin_4)*%
X189681946Y-106323614D03*
%TD*%
D16*
%TO.P,J1,1,Pin_1*%
%TO.N,GND*%
X191261946Y-135323614D03*
D11*
%TO.P,J1,2,Pin_2*%
%TO.N,+12V*%
X188721946Y-135323614D03*
%TD*%
D12*
%TO.P,U3,1*%
%TO.N,Net-(R2-Pad2)*%
X102261946Y-79863614D03*
D13*
%TO.P,U3,2*%
%TO.N,GND*%
X102261946Y-77323614D03*
%TO.P,U3,3*%
X94641946Y-77323614D03*
%TO.P,U3,4*%
%TO.N,Net-(J16-Pin_3)*%
X94641946Y-79863614D03*
%TD*%
D10*
%TO.P,J16,1,Pin_1*%
%TO.N,Net-(J16-Pin_1)*%
X94641946Y-96323614D03*
D11*
%TO.P,J16,2,Pin_2*%
%TO.N,Net-(J16-Pin_2)*%
X97181946Y-96323614D03*
%TO.P,J16,3,Pin_3*%
%TO.N,Net-(J16-Pin_3)*%
X99721946Y-96323614D03*
%TO.P,J16,4,Pin_4*%
%TO.N,Net-(J16-Pin_4)*%
X102261946Y-96323614D03*
%TD*%
D10*
%TO.P,J8,1,Pin_1*%
%TO.N,Net-(J10-Pin_1)*%
X118061946Y-64073614D03*
D11*
%TO.P,J8,2,Pin_2*%
%TO.N,GND*%
X120601946Y-64073614D03*
%TO.P,J8,3,Pin_3*%
%TO.N,Net-(J8-Pin_3)*%
X123141946Y-64073614D03*
%TO.P,J8,4,Pin_4*%
%TO.N,Net-(J8-Pin_4)*%
X125681946Y-64073614D03*
%TO.P,J8,5,Pin_5*%
%TO.N,Net-(J8-Pin_5)*%
X128221946Y-64073614D03*
%TD*%
D15*
%TO.P,U1,1*%
%TO.N,N/C*%
X60761946Y-61993614D03*
%TO.P,U1,2*%
X60761946Y-64533614D03*
%TO.P,U1,3*%
X60761946Y-67073614D03*
%TO.P,U1,4*%
X60761946Y-69613614D03*
%TO.P,U1,5*%
X60761946Y-72153614D03*
%TO.P,U1,6*%
X60761946Y-74693614D03*
%TO.P,U1,7*%
X60761946Y-77233614D03*
%TO.P,U1,8*%
X60761946Y-79773614D03*
%TO.P,U1,9*%
X60761946Y-82313614D03*
%TO.P,U1,10*%
X60761946Y-84853614D03*
%TO.P,U1,11*%
X60761946Y-87393614D03*
%TO.P,U1,12*%
X60761946Y-89933614D03*
%TO.P,U1,13*%
X60761946Y-92473614D03*
%TO.P,U1,14,GND*%
%TO.N,GND*%
X60761946Y-95013614D03*
%TO.P,U1,15,VCC*%
%TO.N,/5v*%
X60761946Y-97553614D03*
%TO.P,U1,16,3V3*%
%TO.N,Net-(JP13-B)*%
X85761946Y-97553614D03*
%TO.P,U1,17,GND*%
%TO.N,GND*%
X85761946Y-95013614D03*
%TO.P,U1,18*%
%TO.N,N/C*%
X85761946Y-92473614D03*
%TO.P,U1,19*%
X85761946Y-89933614D03*
%TO.P,U1,20*%
X85761946Y-87393614D03*
%TO.P,U1,21,RX*%
%TO.N,Net-(JP1-B)*%
X85761946Y-84853614D03*
%TO.P,U1,22,TX*%
%TO.N,Net-(JP2-B)*%
X85761946Y-82313614D03*
%TO.P,U1,23*%
%TO.N,N/C*%
X85761946Y-79773614D03*
%TO.P,U1,24*%
X85761946Y-77233614D03*
%TO.P,U1,25*%
X85761946Y-74693614D03*
%TO.P,U1,26*%
X85761946Y-72153614D03*
%TO.P,U1,27*%
X85761946Y-69613614D03*
%TO.P,U1,28*%
X85761946Y-67073614D03*
%TO.P,U1,29*%
X85761946Y-64533614D03*
%TO.P,U1,30*%
X85761946Y-61993614D03*
%TD*%
D16*
%TO.P,J12,1,Pin_1*%
%TO.N,Net-(J10-Pin_1)*%
X197671946Y-96566114D03*
D11*
%TO.P,J12,2,Pin_2*%
%TO.N,GND*%
X195131946Y-96566114D03*
%TO.P,J12,3,Pin_3*%
%TO.N,Net-(J12-Pin_3)*%
X192591946Y-96566114D03*
%TO.P,J12,4,Pin_4*%
%TO.N,Net-(J12-Pin_4)*%
X190051946Y-96566114D03*
%TD*%
D10*
%TO.P,J13,1,Pin_1*%
%TO.N,/3v3*%
X136281946Y-53373614D03*
D11*
%TO.P,J13,2,Pin_2*%
%TO.N,GND*%
X138821946Y-53373614D03*
%TO.P,J13,3,Pin_3*%
%TO.N,Net-(J13-Pin_3)*%
X141361946Y-53373614D03*
%TD*%
D10*
%TO.P,J4,1,Pin_1*%
%TO.N,Net-(J10-Pin_1)*%
X117681946Y-119323614D03*
D11*
%TO.P,J4,2,Pin_2*%
%TO.N,GND*%
X120221946Y-119323614D03*
%TO.P,J4,3,Pin_3*%
%TO.N,Net-(J4-Pin_3)*%
X122761946Y-119323614D03*
%TO.P,J4,4,Pin_4*%
%TO.N,Net-(J4-Pin_4)*%
X125301946Y-119323614D03*
%TO.P,J4,5,Pin_5*%
%TO.N,Net-(J4-Pin_5)*%
X127841946Y-119323614D03*
%TD*%
D10*
%TO.P,J17,1,Pin_1*%
%TO.N,GND*%
X119721946Y-130573614D03*
D11*
%TO.P,J17,2,Pin_2*%
%TO.N,unconnected-(J17-Pin_2-Pad2)*%
X122261946Y-130573614D03*
%TO.P,J17,3,Pin_3*%
%TO.N,Net-(J17-Pin_3)*%
X124801946Y-130573614D03*
%TD*%
D12*
%TO.P,U4,1*%
%TO.N,Net-(R3-Pad2)*%
X101761946Y-86863614D03*
D13*
%TO.P,U4,2*%
%TO.N,GND*%
X101761946Y-84323614D03*
%TO.P,U4,3*%
X94141946Y-84323614D03*
%TO.P,U4,4*%
%TO.N,Net-(J16-Pin_4)*%
X94141946Y-86863614D03*
%TD*%
D10*
%TO.P,J5,1,Pin_1*%
%TO.N,Net-(J10-Pin_1)*%
X118141946Y-89363614D03*
D11*
%TO.P,J5,2,Pin_2*%
%TO.N,GND*%
X120681946Y-89363614D03*
%TO.P,J5,3,Pin_3*%
%TO.N,Net-(J3-Pin_3)*%
X123221946Y-89363614D03*
%TO.P,J5,4,Pin_4*%
%TO.N,Net-(J3-Pin_4)*%
X125761946Y-89363614D03*
%TD*%
D16*
%TO.P,J10,1,Pin_1*%
%TO.N,Net-(J10-Pin_1)*%
X195801946Y-85323614D03*
D11*
%TO.P,J10,2,Pin_2*%
%TO.N,GND*%
X193261946Y-85323614D03*
%TO.P,J10,3,Pin_3*%
%TO.N,Net-(J10-Pin_3)*%
X190721946Y-85323614D03*
%TD*%
D14*
%TO.P,C2,1*%
%TO.N,+12V*%
X137261946Y-128323614D03*
D13*
%TO.P,C2,2*%
%TO.N,GND*%
X139761946Y-128323614D03*
%TD*%
D17*
%TO.P,J2,1,Pin_1*%
%TO.N,+12V*%
X121979446Y-139598614D03*
D11*
%TO.P,J2,2,Pin_2*%
%TO.N,GND*%
X121979446Y-137058614D03*
%TD*%
D16*
%TO.P,J9,1,Pin_1*%
%TO.N,Net-(J10-Pin_1)*%
X195941946Y-75283614D03*
D11*
%TO.P,J9,2,Pin_2*%
%TO.N,GND*%
X193401946Y-75283614D03*
%TO.P,J9,3,Pin_3*%
%TO.N,Net-(J9-Pin_3)*%
X190861946Y-75283614D03*
%TD*%
D18*
%TO.P,U5,1,GND*%
%TO.N,GND*%
X139521946Y-72623614D03*
%TO.P,U5,2,VCC*%
%TO.N,/5v*%
X142061946Y-72623614D03*
%TO.P,U5,3,PA8*%
%TO.N,Net-(J17-Pin_3)*%
X139521946Y-75163614D03*
%TO.P,U5,4*%
%TO.N,N/C*%
X142061946Y-75163614D03*
%TO.P,U5,5,PA10*%
%TO.N,Net-(U5-PA10)*%
X139521946Y-77703614D03*
%TO.P,U5,6*%
%TO.N,N/C*%
X142061946Y-77703614D03*
%TO.P,U5,7,PA12*%
%TO.N,Net-(U5-PA12)*%
X139521946Y-80243614D03*
%TO.P,U5,8*%
%TO.N,N/C*%
X142061946Y-80243614D03*
%TO.P,U5,9*%
X139521946Y-82783614D03*
%TO.P,U5,10*%
X142061946Y-82783614D03*
%TO.P,U5,11,PC10*%
%TO.N,Net-(U5-PC10)*%
X139521946Y-85323614D03*
%TO.P,U5,12*%
%TO.N,N/C*%
X142061946Y-85323614D03*
%TO.P,U5,13,PC12*%
%TO.N,Net-(U5-PC12)*%
X139521946Y-87863614D03*
%TO.P,U5,14*%
%TO.N,N/C*%
X142061946Y-87863614D03*
%TO.P,U5,15,PD1*%
%TO.N,Net-(U5-PD1)*%
X139521946Y-90403614D03*
%TO.P,U5,16*%
%TO.N,N/C*%
X142061946Y-90403614D03*
%TO.P,U5,17,PD3*%
%TO.N,Net-(U5-PD3)*%
X139521946Y-92943614D03*
%TO.P,U5,18*%
%TO.N,N/C*%
X142061946Y-92943614D03*
%TO.P,U5,19,PD5*%
%TO.N,Net-(U5-PD5)*%
X139521946Y-95483614D03*
%TO.P,U5,20*%
%TO.N,N/C*%
X142061946Y-95483614D03*
%TO.P,U5,21,PD7*%
%TO.N,Net-(U5-PD7)*%
X139521946Y-98023614D03*
%TO.P,U5,22*%
%TO.N,N/C*%
X142061946Y-98023614D03*
%TO.P,U5,23,PB4*%
%TO.N,Net-(U5-PB4)*%
X139521946Y-100563614D03*
%TO.P,U5,24*%
%TO.N,N/C*%
X142061946Y-100563614D03*
%TO.P,U5,25,PB6*%
%TO.N,Net-(J3-Pin_3)*%
X139521946Y-103103614D03*
%TO.P,U5,26*%
%TO.N,N/C*%
X142061946Y-103103614D03*
%TO.P,U5,27*%
X139521946Y-105643614D03*
%TO.P,U5,28,PB7*%
%TO.N,Net-(J3-Pin_4)*%
X142061946Y-105643614D03*
%TO.P,U5,29,GND*%
%TO.N,GND*%
X139521946Y-108183614D03*
%TO.P,U5,30,3V3*%
%TO.N,Net-(JP3-B)*%
X142061946Y-108183614D03*
%TO.P,U5,31,GND*%
%TO.N,GND*%
X139521946Y-110723614D03*
%TO.P,U5,32,VCC*%
%TO.N,/5v*%
X142061946Y-110723614D03*
%TO.P,U5,33*%
%TO.N,N/C*%
X177761946Y-67543614D03*
%TO.P,U5,34*%
X180301946Y-67543614D03*
%TO.P,U5,35*%
X177761946Y-70083614D03*
%TO.P,U5,36*%
X180301946Y-70083614D03*
%TO.P,U5,37*%
X177761946Y-72623614D03*
%TO.P,U5,38*%
X180301946Y-72623614D03*
%TO.P,U5,39*%
X177761946Y-75163614D03*
%TO.P,U5,40*%
X180301946Y-75163614D03*
%TO.P,U5,41*%
X177761946Y-77703614D03*
%TO.P,U5,42*%
X180301946Y-77703614D03*
%TO.P,U5,43,PB8*%
%TO.N,Net-(J15-Pin_4)*%
X177761946Y-80243614D03*
%TO.P,U5,44*%
%TO.N,N/C*%
X180301946Y-80243614D03*
%TO.P,U5,45*%
X177761946Y-82783614D03*
%TO.P,U5,46*%
X180301946Y-82783614D03*
%TO.P,U5,47*%
X177761946Y-85323614D03*
%TO.P,U5,48*%
X180301946Y-85323614D03*
%TO.P,U5,49,PA6*%
%TO.N,Net-(J8-Pin_5)*%
X177761946Y-87863614D03*
%TO.P,U5,50*%
%TO.N,N/C*%
X180301946Y-87863614D03*
%TO.P,U5,51,PA4*%
%TO.N,Net-(J8-Pin_3)*%
X177761946Y-90403614D03*
%TO.P,U5,52,PA5*%
%TO.N,Net-(J8-Pin_4)*%
X180301946Y-90403614D03*
%TO.P,U5,53,PA3*%
%TO.N,Net-(J11-Pin_3)*%
X177761946Y-92943614D03*
%TO.P,U5,54*%
%TO.N,N/C*%
X180301946Y-92943614D03*
%TO.P,U5,55,PA2*%
%TO.N,Net-(J11-Pin_4)*%
X177761946Y-95483614D03*
%TO.P,U5,56*%
%TO.N,N/C*%
X180301946Y-95483614D03*
%TO.P,U5,57,PC2*%
%TO.N,Net-(J15-Pin_3)*%
X177761946Y-98023614D03*
%TO.P,U5,58,PA0*%
%TO.N,Net-(J13-Pin_3)*%
X180301946Y-98023614D03*
%TO.P,U5,59,PC0*%
%TO.N,Net-(J9-Pin_3)*%
X177761946Y-100563614D03*
%TO.P,U5,60,PC1*%
%TO.N,Net-(J10-Pin_3)*%
X180301946Y-100563614D03*
%TO.P,U5,61,3V3*%
%TO.N,Net-(JP3-B)*%
X177761946Y-103103614D03*
%TO.P,U5,62,GND*%
%TO.N,GND*%
X180301946Y-103103614D03*
%TO.P,U5,63*%
%TO.N,N/C*%
X177761946Y-105643614D03*
%TO.P,U5,64*%
X180301946Y-105643614D03*
%TO.P,U5,65*%
X177761946Y-108183614D03*
%TO.P,U5,66*%
X180301946Y-108183614D03*
%TO.P,U5,67,PE2*%
%TO.N,Net-(J12-Pin_4)*%
X177761946Y-110723614D03*
%TO.P,U5,68,PE3*%
%TO.N,Net-(J12-Pin_3)*%
X180301946Y-110723614D03*
%TO.P,U5,69*%
%TO.N,N/C*%
X147021946Y-62283614D03*
%TO.P,U5,70*%
X147021946Y-64823614D03*
%TO.P,U5,71,PC6*%
%TO.N,Net-(J14-Pin_3)*%
X149561946Y-62283614D03*
%TO.P,U5,72*%
%TO.N,N/C*%
X149561946Y-64823614D03*
%TO.P,U5,73,PD14*%
%TO.N,Net-(U5-PD14)*%
X152101946Y-62283614D03*
%TO.P,U5,74,PD13*%
%TO.N,Net-(U5-PD13)*%
X152101946Y-64823614D03*
%TO.P,U5,75,PD12*%
%TO.N,Net-(U5-PD12)*%
X154641946Y-62283614D03*
%TO.P,U5,76*%
%TO.N,N/C*%
X154641946Y-64823614D03*
%TO.P,U5,77*%
X157181946Y-62283614D03*
%TO.P,U5,78*%
X157181946Y-64823614D03*
%TO.P,U5,79*%
X159721946Y-62283614D03*
%TO.P,U5,80*%
X159721946Y-64823614D03*
%TO.P,U5,81*%
X162261946Y-62283614D03*
%TO.P,U5,82*%
X162261946Y-64823614D03*
%TO.P,U5,83,GND*%
%TO.N,GND*%
X164801946Y-62283614D03*
%TO.P,U5,84,3V3*%
%TO.N,Net-(JP3-B)*%
X164801946Y-64823614D03*
%TO.P,U5,85,PB11*%
%TO.N,Net-(JP10-A)*%
X167341946Y-62283614D03*
%TO.P,U5,86*%
%TO.N,N/C*%
X167341946Y-64823614D03*
%TO.P,U5,87*%
X169881946Y-62283614D03*
%TO.P,U5,88,PB10*%
%TO.N,Net-(JP1-A)*%
X169881946Y-64823614D03*
%TO.P,U5,89*%
%TO.N,N/C*%
X172421946Y-62283614D03*
%TO.P,U5,90*%
X172421946Y-64823614D03*
%TO.P,U5,91*%
X174961946Y-62283614D03*
%TO.P,U5,92*%
X174961946Y-64823614D03*
%TD*%
D10*
%TO.P,J15,1,Pin_1*%
%TO.N,+12V*%
X189681946Y-123323614D03*
D11*
%TO.P,J15,2,Pin_2*%
%TO.N,GND*%
X192221946Y-123323614D03*
%TO.P,J15,3,Pin_3*%
%TO.N,Net-(J15-Pin_3)*%
X194761946Y-123323614D03*
%TO.P,J15,4,Pin_4*%
%TO.N,Net-(J15-Pin_4)*%
X197301946Y-123323614D03*
%TD*%
D19*
%TO.N,/3v3*%
X154254318Y-106815986D03*
X79511946Y-135573614D03*
X79511946Y-105073614D03*
X145261946Y-123973722D03*
X145261946Y-130323614D03*
X158511946Y-106761612D03*
X128261946Y-131073614D03*
X128261946Y-142073614D03*
%TO.N,/5v*%
X147261946Y-111323614D03*
X75261946Y-106573614D03*
X75261946Y-135823614D03*
X144761946Y-72323614D03*
X144774024Y-95835692D03*
X156761946Y-57323614D03*
X180261946Y-57323614D03*
X147261946Y-107077783D03*
X147761946Y-57323614D03*
X159289624Y-111915403D03*
X143011946Y-121073614D03*
X134511946Y-121073614D03*
X163261946Y-57323614D03*
X144761946Y-64823614D03*
%TO.N,Net-(J10-Pin_1)*%
X118011946Y-91823614D03*
X197261946Y-110323614D03*
X197261946Y-116323614D03*
X117681946Y-107903614D03*
%TO.N,Net-(J3-Pin_3)*%
X123261946Y-92073614D03*
X134261946Y-104152022D03*
X134319272Y-110280940D03*
X123261946Y-104027650D03*
%TO.N,Net-(J3-Pin_4)*%
X126232795Y-91905692D03*
X126306382Y-107991388D03*
X144881069Y-104692737D03*
X144761946Y-112799801D03*
%TO.N,Net-(J14-Pin_3)*%
X158761946Y-52823614D03*
X169628142Y-50923221D03*
%TO.N,Net-(J9-Pin_3)*%
X169169396Y-101371247D03*
X174261946Y-101323614D03*
%TO.N,Net-(J15-Pin_3)*%
X174261945Y-98823614D03*
X169099645Y-98964816D03*
%TO.N,Net-(J8-Pin_3)*%
X169261946Y-91823614D03*
X155761946Y-90323614D03*
X164761946Y-91823614D03*
X155761946Y-79823614D03*
%TO.N,Net-(J8-Pin_4)*%
X132339447Y-50684563D03*
X188761946Y-89823614D03*
X184924926Y-89823614D03*
X132261946Y-63823614D03*
%TO.N,Net-(J8-Pin_5)*%
X157761946Y-88823614D03*
X164761946Y-88823614D03*
X169261946Y-88823614D03*
X157688342Y-77798097D03*
%TO.N,Net-(J17-Pin_3)*%
X131256110Y-105273614D03*
X114511946Y-126823614D03*
X131261946Y-81073614D03*
X114261946Y-121573614D03*
%TO.N,+12V*%
X185261946Y-123323614D03*
X185261946Y-131863614D03*
%TO.N,Net-(U5-PD12)*%
X144224455Y-55413080D03*
X128629318Y-59456242D03*
X128754318Y-53581242D03*
X154269574Y-55331242D03*
%TO.N,Net-(U5-PD13)*%
X115538912Y-77573614D03*
X152261946Y-77323614D03*
X152261946Y-67323614D03*
X128783917Y-77650512D03*
%TO.N,Net-(U5-PD14)*%
X142261946Y-59550045D03*
X135261946Y-59323614D03*
X128261946Y-75823614D03*
X152261946Y-59323614D03*
X115511946Y-75573614D03*
X135261946Y-70323614D03*
%TO.N,Net-(JP3-B)*%
X163761946Y-104323614D03*
X174261946Y-104323614D03*
X162761946Y-70323614D03*
X159273911Y-104323614D03*
X162622612Y-80962947D03*
X153011946Y-104323614D03*
%TO.N,Net-(J16-Pin_1)*%
X90011946Y-125073614D03*
X90011946Y-96323614D03*
%TO.N,Net-(J4-Pin_3)*%
X149311946Y-109823614D03*
X149311946Y-99573614D03*
%TO.N,GND*%
X172261946Y-52823614D03*
X120141946Y-115073614D03*
X111261946Y-115073614D03*
X161761946Y-100823614D03*
X111261946Y-50823614D03*
X158761946Y-133823614D03*
X161761946Y-54823614D03*
X178761946Y-124823614D03*
X158761946Y-127323614D03*
X111011946Y-120823614D03*
X111011946Y-127573614D03*
X161761946Y-107323614D03*
X111261946Y-64323614D03*
X171761946Y-131323614D03*
X178761946Y-131323614D03*
X190761946Y-114823614D03*
D20*
X133761946Y-134073614D03*
D19*
X185761946Y-120823614D03*
D20*
X106261946Y-138323614D03*
X142511946Y-134073614D03*
D19*
X171761946Y-125323614D03*
D20*
X114110704Y-130498106D03*
%TD*%
D21*
%TO.N,/5v*%
X148778332Y-112840000D02*
X147261946Y-111323614D01*
X158365027Y-112840000D02*
X148778332Y-112840000D01*
X159289624Y-111915403D02*
X158365027Y-112840000D01*
D22*
%TO.N,/3v3*%
X157146645Y-106761612D02*
X158511946Y-106761612D01*
X157084643Y-106823614D02*
X157146645Y-106761612D01*
D23*
X145261946Y-130323614D02*
X145261946Y-123973722D01*
D22*
X79511946Y-135573614D02*
X79511946Y-105073614D01*
D23*
X128261946Y-131073614D02*
X128261946Y-142073614D01*
D22*
X154261946Y-106823614D02*
X157084643Y-106823614D01*
X154254318Y-106815986D02*
X154261946Y-106823614D01*
%TO.N,/5v*%
X144761946Y-64823614D02*
X144761946Y-72323614D01*
X147761946Y-57323614D02*
X156761946Y-57323614D01*
D23*
X75261946Y-135823614D02*
X75261946Y-106573614D01*
D22*
X163261946Y-57323614D02*
X180261946Y-57323614D01*
D21*
X147261946Y-107077783D02*
X147261946Y-98323614D01*
X147261946Y-98323614D02*
X144774024Y-95835692D01*
D23*
X143011946Y-121073614D02*
X134511946Y-121073614D01*
D22*
%TO.N,Net-(J10-Pin_1)*%
X117761946Y-92073614D02*
X118011946Y-91823614D01*
X117761946Y-107823614D02*
X117761946Y-92073614D01*
X197261946Y-110323614D02*
X197261946Y-116323614D01*
X117681946Y-107903614D02*
X117761946Y-107823614D01*
%TO.N,Net-(J3-Pin_3)*%
X134261946Y-110223614D02*
X134319272Y-110280940D01*
X134261946Y-104152022D02*
X134261946Y-110223614D01*
X123261946Y-104027650D02*
X123261946Y-92073614D01*
%TO.N,Net-(J3-Pin_4)*%
X144511946Y-105061860D02*
X144511946Y-105073614D01*
X126261946Y-91934843D02*
X126232795Y-91905692D01*
X126306382Y-107991388D02*
X126261946Y-107946952D01*
X144881069Y-104692737D02*
X144511946Y-105061860D01*
X144761946Y-105323614D02*
X144761946Y-112799801D01*
X126261946Y-107946952D02*
X126261946Y-91934843D01*
X144511946Y-105073614D02*
X144761946Y-105323614D01*
%TO.N,Net-(J14-Pin_3)*%
X169628142Y-50923221D02*
X165662339Y-50923221D01*
X165662339Y-50923221D02*
X163761946Y-52823614D01*
X163761946Y-52823614D02*
X158761946Y-52823614D01*
%TO.N,Net-(J9-Pin_3)*%
X169217029Y-101323614D02*
X174261946Y-101323614D01*
X169169396Y-101371247D02*
X169217029Y-101323614D01*
%TO.N,Net-(J15-Pin_3)*%
X174261945Y-98823614D02*
X169240847Y-98823614D01*
X169240847Y-98823614D02*
X169099645Y-98964816D01*
%TO.N,Net-(J8-Pin_3)*%
X155761946Y-79823614D02*
X155761946Y-90323614D01*
X164761946Y-91823614D02*
X169261946Y-91823614D01*
%TO.N,Net-(J8-Pin_4)*%
X132261946Y-63823614D02*
X132261946Y-50762064D01*
X184924926Y-89823614D02*
X188761946Y-89823614D01*
X132261946Y-50762064D02*
X132339447Y-50684563D01*
%TO.N,Net-(J8-Pin_5)*%
X157688342Y-77798097D02*
X157761946Y-77871701D01*
X157761946Y-77871701D02*
X157761946Y-88823614D01*
X164761946Y-88823614D02*
X169261946Y-88823614D01*
%TO.N,Net-(J17-Pin_3)*%
X131261946Y-104823614D02*
X131261946Y-81073614D01*
X131256110Y-105273614D02*
X131256110Y-104829450D01*
X131256110Y-104829450D02*
X131261946Y-104823614D01*
X114511946Y-121823614D02*
X114261946Y-121573614D01*
X114511946Y-126823614D02*
X114511946Y-121823614D01*
D23*
%TO.N,+12V*%
X185261946Y-131863614D02*
X185261946Y-123323614D01*
D22*
%TO.N,Net-(U5-PD12)*%
X128761946Y-59323614D02*
X128761946Y-53588870D01*
X152761946Y-55323614D02*
X144313921Y-55323614D01*
X128629318Y-59456242D02*
X128761946Y-59323614D01*
X128761946Y-53588870D02*
X128754318Y-53581242D01*
X152769574Y-55331242D02*
X152761946Y-55323614D01*
X144313921Y-55323614D02*
X144224455Y-55413080D01*
X154269574Y-55331242D02*
X152769574Y-55331242D01*
%TO.N,Net-(U5-PD13)*%
X115538912Y-77573614D02*
X128707019Y-77573614D01*
X152261946Y-77323614D02*
X152261946Y-67323614D01*
X128707019Y-77573614D02*
X128783917Y-77650512D01*
%TO.N,Net-(U5-PD14)*%
X142261946Y-59550045D02*
X142488377Y-59323614D01*
X115511946Y-75573614D02*
X116011946Y-75573614D01*
X135261946Y-59323614D02*
X135261946Y-70323614D01*
X142488377Y-59323614D02*
X152261946Y-59323614D01*
X116261946Y-75823614D02*
X128261946Y-75823614D01*
X116011946Y-75573614D02*
X116261946Y-75823614D01*
%TO.N,Net-(JP3-B)*%
X162761946Y-80823613D02*
X162761946Y-70323614D01*
X162622612Y-80962947D02*
X162761946Y-80823613D01*
X163761946Y-104323614D02*
X174261946Y-104323614D01*
X153011946Y-104323614D02*
X159273911Y-104323614D01*
D21*
%TO.N,Net-(J16-Pin_1)*%
X90011946Y-125073614D02*
X90011946Y-96323614D01*
D22*
%TO.N,Net-(J4-Pin_3)*%
X149311946Y-109823614D02*
X149311946Y-99573614D01*
%TO.N,GND*%
X164761946Y-54823614D02*
X166261946Y-53323614D01*
X111011946Y-127573614D02*
X111011946Y-120823614D01*
X166261946Y-53323614D02*
X171761946Y-53323614D01*
D24*
X114087454Y-130498106D02*
X106261946Y-138323614D01*
D23*
X178761946Y-124823614D02*
X178761946Y-131323614D01*
X190761946Y-115823614D02*
X185761946Y-120823614D01*
D24*
X142511946Y-134073614D02*
X133761946Y-134073614D01*
D23*
X190761946Y-114823614D02*
X190761946Y-115823614D01*
X158761946Y-127323614D02*
X158761946Y-133823614D01*
X171761946Y-125323614D02*
X171761946Y-131323614D01*
D21*
X114110704Y-130498106D02*
X114087454Y-130498106D01*
D23*
X111261946Y-50823614D02*
X111261946Y-64323614D01*
D22*
X171761946Y-53323614D02*
X172261946Y-52823614D01*
D23*
X161761946Y-100823614D02*
X161761946Y-107323614D01*
D22*
X161761946Y-54823614D02*
X164761946Y-54823614D01*
X111261946Y-115073614D02*
X120141946Y-115073614D01*
%TD*%
M02*
