%TF.GenerationSoftware,KiCad,Pcbnew,9.0.6*%
%TF.CreationDate,2026-09-15T03:16:13+05:30*%
%TF.ProjectId,sensor_board - Copy,73656e73-6f72-45f6-926f-617264202d20,rev?*%
%TF.SameCoordinates,Original*%
%TF.FileFunction,Legend,Top*%
%TF.FilePolarity,Positive*%
%FSLAX46Y46*%
G04 Gerber Fmt 4.6, Leading zero omitted, Abs format (unit mm)*
G04 Created by KiCad (PCBNEW 9.0.6) date 2026-09-15 03:16:13*
%MOMM*%
%LPD*%
G01*
G04 APERTURE LIST*
%ADD10C,0.200000*%
%ADD11C,0.150000*%
%ADD12C,0.100000*%
%ADD13C,0.120000*%
G04 APERTURE END LIST*
D10*
X55011946Y-48573614D02*
X202511946Y-48573614D01*
X202511946Y-146073614D01*
X55011946Y-146073614D01*
X55011946Y-48573614D01*
D11*
X192452422Y-61558433D02*
X192452422Y-62272718D01*
X192452422Y-62272718D02*
X192404803Y-62415575D01*
X192404803Y-62415575D02*
X192309565Y-62510814D01*
X192309565Y-62510814D02*
X192166708Y-62558433D01*
X192166708Y-62558433D02*
X192071470Y-62558433D01*
X193452422Y-62558433D02*
X192880994Y-62558433D01*
X193166708Y-62558433D02*
X193166708Y-61558433D01*
X193166708Y-61558433D02*
X193071470Y-61701290D01*
X193071470Y-61701290D02*
X192976232Y-61796528D01*
X192976232Y-61796528D02*
X192880994Y-61844147D01*
X194309565Y-61891766D02*
X194309565Y-62558433D01*
X194071470Y-61510814D02*
X193833375Y-62225099D01*
X193833375Y-62225099D02*
X194452422Y-62225099D01*
X98092829Y-67427303D02*
X98092829Y-68236826D01*
X98092829Y-68236826D02*
X98140448Y-68332064D01*
X98140448Y-68332064D02*
X98188067Y-68379684D01*
X98188067Y-68379684D02*
X98283305Y-68427303D01*
X98283305Y-68427303D02*
X98473781Y-68427303D01*
X98473781Y-68427303D02*
X98569019Y-68379684D01*
X98569019Y-68379684D02*
X98616638Y-68332064D01*
X98616638Y-68332064D02*
X98664257Y-68236826D01*
X98664257Y-68236826D02*
X98664257Y-67427303D01*
X99092829Y-67522541D02*
X99140448Y-67474922D01*
X99140448Y-67474922D02*
X99235686Y-67427303D01*
X99235686Y-67427303D02*
X99473781Y-67427303D01*
X99473781Y-67427303D02*
X99569019Y-67474922D01*
X99569019Y-67474922D02*
X99616638Y-67522541D01*
X99616638Y-67522541D02*
X99664257Y-67617779D01*
X99664257Y-67617779D02*
X99664257Y-67713017D01*
X99664257Y-67713017D02*
X99616638Y-67855874D01*
X99616638Y-67855874D02*
X99045210Y-68427303D01*
X99045210Y-68427303D02*
X99664257Y-68427303D01*
X138227602Y-132933194D02*
X138179983Y-132980814D01*
X138179983Y-132980814D02*
X138037126Y-133028433D01*
X138037126Y-133028433D02*
X137941888Y-133028433D01*
X137941888Y-133028433D02*
X137799031Y-132980814D01*
X137799031Y-132980814D02*
X137703793Y-132885575D01*
X137703793Y-132885575D02*
X137656174Y-132790337D01*
X137656174Y-132790337D02*
X137608555Y-132599861D01*
X137608555Y-132599861D02*
X137608555Y-132457004D01*
X137608555Y-132457004D02*
X137656174Y-132266528D01*
X137656174Y-132266528D02*
X137703793Y-132171290D01*
X137703793Y-132171290D02*
X137799031Y-132076052D01*
X137799031Y-132076052D02*
X137941888Y-132028433D01*
X137941888Y-132028433D02*
X138037126Y-132028433D01*
X138037126Y-132028433D02*
X138179983Y-132076052D01*
X138179983Y-132076052D02*
X138227602Y-132123671D01*
X139179983Y-133028433D02*
X138608555Y-133028433D01*
X138894269Y-133028433D02*
X138894269Y-132028433D01*
X138894269Y-132028433D02*
X138799031Y-132171290D01*
X138799031Y-132171290D02*
X138703793Y-132266528D01*
X138703793Y-132266528D02*
X138608555Y-132314147D01*
X122428612Y-105808433D02*
X122428612Y-106522718D01*
X122428612Y-106522718D02*
X122380993Y-106665575D01*
X122380993Y-106665575D02*
X122285755Y-106760814D01*
X122285755Y-106760814D02*
X122142898Y-106808433D01*
X122142898Y-106808433D02*
X122047660Y-106808433D01*
X122809565Y-105808433D02*
X123476231Y-105808433D01*
X123476231Y-105808433D02*
X123047660Y-106808433D01*
X121948612Y-77058433D02*
X121948612Y-77772718D01*
X121948612Y-77772718D02*
X121900993Y-77915575D01*
X121900993Y-77915575D02*
X121805755Y-78010814D01*
X121805755Y-78010814D02*
X121662898Y-78058433D01*
X121662898Y-78058433D02*
X121567660Y-78058433D01*
X122853374Y-77058433D02*
X122662898Y-77058433D01*
X122662898Y-77058433D02*
X122567660Y-77106052D01*
X122567660Y-77106052D02*
X122520041Y-77153671D01*
X122520041Y-77153671D02*
X122424803Y-77296528D01*
X122424803Y-77296528D02*
X122377184Y-77487004D01*
X122377184Y-77487004D02*
X122377184Y-77867956D01*
X122377184Y-77867956D02*
X122424803Y-77963194D01*
X122424803Y-77963194D02*
X122472422Y-78010814D01*
X122472422Y-78010814D02*
X122567660Y-78058433D01*
X122567660Y-78058433D02*
X122758136Y-78058433D01*
X122758136Y-78058433D02*
X122853374Y-78010814D01*
X122853374Y-78010814D02*
X122900993Y-77963194D01*
X122900993Y-77963194D02*
X122948612Y-77867956D01*
X122948612Y-77867956D02*
X122948612Y-77629861D01*
X122948612Y-77629861D02*
X122900993Y-77534623D01*
X122900993Y-77534623D02*
X122853374Y-77487004D01*
X122853374Y-77487004D02*
X122758136Y-77439385D01*
X122758136Y-77439385D02*
X122567660Y-77439385D01*
X122567660Y-77439385D02*
X122472422Y-77487004D01*
X122472422Y-77487004D02*
X122424803Y-77534623D01*
X122424803Y-77534623D02*
X122377184Y-77629861D01*
X121618612Y-66808433D02*
X121618612Y-67522718D01*
X121618612Y-67522718D02*
X121570993Y-67665575D01*
X121570993Y-67665575D02*
X121475755Y-67760814D01*
X121475755Y-67760814D02*
X121332898Y-67808433D01*
X121332898Y-67808433D02*
X121237660Y-67808433D01*
X121999565Y-66808433D02*
X122618612Y-66808433D01*
X122618612Y-66808433D02*
X122285279Y-67189385D01*
X122285279Y-67189385D02*
X122428136Y-67189385D01*
X122428136Y-67189385D02*
X122523374Y-67237004D01*
X122523374Y-67237004D02*
X122570993Y-67284623D01*
X122570993Y-67284623D02*
X122618612Y-67379861D01*
X122618612Y-67379861D02*
X122618612Y-67617956D01*
X122618612Y-67617956D02*
X122570993Y-67713194D01*
X122570993Y-67713194D02*
X122523374Y-67760814D01*
X122523374Y-67760814D02*
X122428136Y-67808433D01*
X122428136Y-67808433D02*
X122142422Y-67808433D01*
X122142422Y-67808433D02*
X122047184Y-67760814D01*
X122047184Y-67760814D02*
X121999565Y-67713194D01*
X192682422Y-109998433D02*
X192682422Y-110712718D01*
X192682422Y-110712718D02*
X192634803Y-110855575D01*
X192634803Y-110855575D02*
X192539565Y-110950814D01*
X192539565Y-110950814D02*
X192396708Y-110998433D01*
X192396708Y-110998433D02*
X192301470Y-110998433D01*
X193682422Y-110998433D02*
X193110994Y-110998433D01*
X193396708Y-110998433D02*
X193396708Y-109998433D01*
X193396708Y-109998433D02*
X193301470Y-110141290D01*
X193301470Y-110141290D02*
X193206232Y-110236528D01*
X193206232Y-110236528D02*
X193110994Y-110284147D01*
X194634803Y-110998433D02*
X194063375Y-110998433D01*
X194349089Y-110998433D02*
X194349089Y-109998433D01*
X194349089Y-109998433D02*
X194253851Y-110141290D01*
X194253851Y-110141290D02*
X194158613Y-110236528D01*
X194158613Y-110236528D02*
X194063375Y-110284147D01*
X189658612Y-138998433D02*
X189658612Y-139712718D01*
X189658612Y-139712718D02*
X189610993Y-139855575D01*
X189610993Y-139855575D02*
X189515755Y-139950814D01*
X189515755Y-139950814D02*
X189372898Y-139998433D01*
X189372898Y-139998433D02*
X189277660Y-139998433D01*
X190658612Y-139998433D02*
X190087184Y-139998433D01*
X190372898Y-139998433D02*
X190372898Y-138998433D01*
X190372898Y-138998433D02*
X190277660Y-139141290D01*
X190277660Y-139141290D02*
X190182422Y-139236528D01*
X190182422Y-139236528D02*
X190087184Y-139284147D01*
X97690041Y-81648433D02*
X97690041Y-82457956D01*
X97690041Y-82457956D02*
X97737660Y-82553194D01*
X97737660Y-82553194D02*
X97785279Y-82600814D01*
X97785279Y-82600814D02*
X97880517Y-82648433D01*
X97880517Y-82648433D02*
X98070993Y-82648433D01*
X98070993Y-82648433D02*
X98166231Y-82600814D01*
X98166231Y-82600814D02*
X98213850Y-82553194D01*
X98213850Y-82553194D02*
X98261469Y-82457956D01*
X98261469Y-82457956D02*
X98261469Y-81648433D01*
X98642422Y-81648433D02*
X99261469Y-81648433D01*
X99261469Y-81648433D02*
X98928136Y-82029385D01*
X98928136Y-82029385D02*
X99070993Y-82029385D01*
X99070993Y-82029385D02*
X99166231Y-82077004D01*
X99166231Y-82077004D02*
X99213850Y-82124623D01*
X99213850Y-82124623D02*
X99261469Y-82219861D01*
X99261469Y-82219861D02*
X99261469Y-82457956D01*
X99261469Y-82457956D02*
X99213850Y-82553194D01*
X99213850Y-82553194D02*
X99166231Y-82600814D01*
X99166231Y-82600814D02*
X99070993Y-82648433D01*
X99070993Y-82648433D02*
X98785279Y-82648433D01*
X98785279Y-82648433D02*
X98690041Y-82600814D01*
X98690041Y-82600814D02*
X98642422Y-82553194D01*
X97642422Y-91558433D02*
X97642422Y-92272718D01*
X97642422Y-92272718D02*
X97594803Y-92415575D01*
X97594803Y-92415575D02*
X97499565Y-92510814D01*
X97499565Y-92510814D02*
X97356708Y-92558433D01*
X97356708Y-92558433D02*
X97261470Y-92558433D01*
X98642422Y-92558433D02*
X98070994Y-92558433D01*
X98356708Y-92558433D02*
X98356708Y-91558433D01*
X98356708Y-91558433D02*
X98261470Y-91701290D01*
X98261470Y-91701290D02*
X98166232Y-91796528D01*
X98166232Y-91796528D02*
X98070994Y-91844147D01*
X99499565Y-91558433D02*
X99309089Y-91558433D01*
X99309089Y-91558433D02*
X99213851Y-91606052D01*
X99213851Y-91606052D02*
X99166232Y-91653671D01*
X99166232Y-91653671D02*
X99070994Y-91796528D01*
X99070994Y-91796528D02*
X99023375Y-91987004D01*
X99023375Y-91987004D02*
X99023375Y-92367956D01*
X99023375Y-92367956D02*
X99070994Y-92463194D01*
X99070994Y-92463194D02*
X99118613Y-92510814D01*
X99118613Y-92510814D02*
X99213851Y-92558433D01*
X99213851Y-92558433D02*
X99404327Y-92558433D01*
X99404327Y-92558433D02*
X99499565Y-92510814D01*
X99499565Y-92510814D02*
X99547184Y-92463194D01*
X99547184Y-92463194D02*
X99594803Y-92367956D01*
X99594803Y-92367956D02*
X99594803Y-92129861D01*
X99594803Y-92129861D02*
X99547184Y-92034623D01*
X99547184Y-92034623D02*
X99499565Y-91987004D01*
X99499565Y-91987004D02*
X99404327Y-91939385D01*
X99404327Y-91939385D02*
X99213851Y-91939385D01*
X99213851Y-91939385D02*
X99118613Y-91987004D01*
X99118613Y-91987004D02*
X99070994Y-92034623D01*
X99070994Y-92034623D02*
X99023375Y-92129861D01*
X122808612Y-59308433D02*
X122808612Y-60022718D01*
X122808612Y-60022718D02*
X122760993Y-60165575D01*
X122760993Y-60165575D02*
X122665755Y-60260814D01*
X122665755Y-60260814D02*
X122522898Y-60308433D01*
X122522898Y-60308433D02*
X122427660Y-60308433D01*
X123427660Y-59737004D02*
X123332422Y-59689385D01*
X123332422Y-59689385D02*
X123284803Y-59641766D01*
X123284803Y-59641766D02*
X123237184Y-59546528D01*
X123237184Y-59546528D02*
X123237184Y-59498909D01*
X123237184Y-59498909D02*
X123284803Y-59403671D01*
X123284803Y-59403671D02*
X123332422Y-59356052D01*
X123332422Y-59356052D02*
X123427660Y-59308433D01*
X123427660Y-59308433D02*
X123618136Y-59308433D01*
X123618136Y-59308433D02*
X123713374Y-59356052D01*
X123713374Y-59356052D02*
X123760993Y-59403671D01*
X123760993Y-59403671D02*
X123808612Y-59498909D01*
X123808612Y-59498909D02*
X123808612Y-59546528D01*
X123808612Y-59546528D02*
X123760993Y-59641766D01*
X123760993Y-59641766D02*
X123713374Y-59689385D01*
X123713374Y-59689385D02*
X123618136Y-59737004D01*
X123618136Y-59737004D02*
X123427660Y-59737004D01*
X123427660Y-59737004D02*
X123332422Y-59784623D01*
X123332422Y-59784623D02*
X123284803Y-59832242D01*
X123284803Y-59832242D02*
X123237184Y-59927480D01*
X123237184Y-59927480D02*
X123237184Y-60117956D01*
X123237184Y-60117956D02*
X123284803Y-60213194D01*
X123284803Y-60213194D02*
X123332422Y-60260814D01*
X123332422Y-60260814D02*
X123427660Y-60308433D01*
X123427660Y-60308433D02*
X123618136Y-60308433D01*
X123618136Y-60308433D02*
X123713374Y-60260814D01*
X123713374Y-60260814D02*
X123760993Y-60213194D01*
X123760993Y-60213194D02*
X123808612Y-60117956D01*
X123808612Y-60117956D02*
X123808612Y-59927480D01*
X123808612Y-59927480D02*
X123760993Y-59832242D01*
X123760993Y-59832242D02*
X123713374Y-59784623D01*
X123713374Y-59784623D02*
X123618136Y-59737004D01*
D12*
X72500041Y-80451033D02*
X72500041Y-81260556D01*
X72500041Y-81260556D02*
X72547660Y-81355794D01*
X72547660Y-81355794D02*
X72595279Y-81403414D01*
X72595279Y-81403414D02*
X72690517Y-81451033D01*
X72690517Y-81451033D02*
X72880993Y-81451033D01*
X72880993Y-81451033D02*
X72976231Y-81403414D01*
X72976231Y-81403414D02*
X73023850Y-81355794D01*
X73023850Y-81355794D02*
X73071469Y-81260556D01*
X73071469Y-81260556D02*
X73071469Y-80451033D01*
X74071469Y-81451033D02*
X73500041Y-81451033D01*
X73785755Y-81451033D02*
X73785755Y-80451033D01*
X73785755Y-80451033D02*
X73690517Y-80593890D01*
X73690517Y-80593890D02*
X73595279Y-80689128D01*
X73595279Y-80689128D02*
X73500041Y-80736747D01*
D11*
X193052422Y-100240933D02*
X193052422Y-100955218D01*
X193052422Y-100955218D02*
X193004803Y-101098075D01*
X193004803Y-101098075D02*
X192909565Y-101193314D01*
X192909565Y-101193314D02*
X192766708Y-101240933D01*
X192766708Y-101240933D02*
X192671470Y-101240933D01*
X194052422Y-101240933D02*
X193480994Y-101240933D01*
X193766708Y-101240933D02*
X193766708Y-100240933D01*
X193766708Y-100240933D02*
X193671470Y-100383790D01*
X193671470Y-100383790D02*
X193576232Y-100479028D01*
X193576232Y-100479028D02*
X193480994Y-100526647D01*
X194433375Y-100336171D02*
X194480994Y-100288552D01*
X194480994Y-100288552D02*
X194576232Y-100240933D01*
X194576232Y-100240933D02*
X194814327Y-100240933D01*
X194814327Y-100240933D02*
X194909565Y-100288552D01*
X194909565Y-100288552D02*
X194957184Y-100336171D01*
X194957184Y-100336171D02*
X195004803Y-100431409D01*
X195004803Y-100431409D02*
X195004803Y-100526647D01*
X195004803Y-100526647D02*
X194957184Y-100669504D01*
X194957184Y-100669504D02*
X194385756Y-101240933D01*
X194385756Y-101240933D02*
X195004803Y-101240933D01*
X138012422Y-48608433D02*
X138012422Y-49322718D01*
X138012422Y-49322718D02*
X137964803Y-49465575D01*
X137964803Y-49465575D02*
X137869565Y-49560814D01*
X137869565Y-49560814D02*
X137726708Y-49608433D01*
X137726708Y-49608433D02*
X137631470Y-49608433D01*
X139012422Y-49608433D02*
X138440994Y-49608433D01*
X138726708Y-49608433D02*
X138726708Y-48608433D01*
X138726708Y-48608433D02*
X138631470Y-48751290D01*
X138631470Y-48751290D02*
X138536232Y-48846528D01*
X138536232Y-48846528D02*
X138440994Y-48894147D01*
X139345756Y-48608433D02*
X139964803Y-48608433D01*
X139964803Y-48608433D02*
X139631470Y-48989385D01*
X139631470Y-48989385D02*
X139774327Y-48989385D01*
X139774327Y-48989385D02*
X139869565Y-49037004D01*
X139869565Y-49037004D02*
X139917184Y-49084623D01*
X139917184Y-49084623D02*
X139964803Y-49179861D01*
X139964803Y-49179861D02*
X139964803Y-49417956D01*
X139964803Y-49417956D02*
X139917184Y-49513194D01*
X139917184Y-49513194D02*
X139869565Y-49560814D01*
X139869565Y-49560814D02*
X139774327Y-49608433D01*
X139774327Y-49608433D02*
X139488613Y-49608433D01*
X139488613Y-49608433D02*
X139393375Y-49560814D01*
X139393375Y-49560814D02*
X139345756Y-49513194D01*
X122428612Y-114558433D02*
X122428612Y-115272718D01*
X122428612Y-115272718D02*
X122380993Y-115415575D01*
X122380993Y-115415575D02*
X122285755Y-115510814D01*
X122285755Y-115510814D02*
X122142898Y-115558433D01*
X122142898Y-115558433D02*
X122047660Y-115558433D01*
X123333374Y-114891766D02*
X123333374Y-115558433D01*
X123095279Y-114510814D02*
X122857184Y-115225099D01*
X122857184Y-115225099D02*
X123476231Y-115225099D01*
X121452422Y-125808433D02*
X121452422Y-126522718D01*
X121452422Y-126522718D02*
X121404803Y-126665575D01*
X121404803Y-126665575D02*
X121309565Y-126760814D01*
X121309565Y-126760814D02*
X121166708Y-126808433D01*
X121166708Y-126808433D02*
X121071470Y-126808433D01*
X122452422Y-126808433D02*
X121880994Y-126808433D01*
X122166708Y-126808433D02*
X122166708Y-125808433D01*
X122166708Y-125808433D02*
X122071470Y-125951290D01*
X122071470Y-125951290D02*
X121976232Y-126046528D01*
X121976232Y-126046528D02*
X121880994Y-126094147D01*
X122785756Y-125808433D02*
X123452422Y-125808433D01*
X123452422Y-125808433D02*
X123023851Y-126808433D01*
X97190041Y-88648433D02*
X97190041Y-89457956D01*
X97190041Y-89457956D02*
X97237660Y-89553194D01*
X97237660Y-89553194D02*
X97285279Y-89600814D01*
X97285279Y-89600814D02*
X97380517Y-89648433D01*
X97380517Y-89648433D02*
X97570993Y-89648433D01*
X97570993Y-89648433D02*
X97666231Y-89600814D01*
X97666231Y-89600814D02*
X97713850Y-89553194D01*
X97713850Y-89553194D02*
X97761469Y-89457956D01*
X97761469Y-89457956D02*
X97761469Y-88648433D01*
X98666231Y-88981766D02*
X98666231Y-89648433D01*
X98428136Y-88600814D02*
X98190041Y-89315099D01*
X98190041Y-89315099D02*
X98809088Y-89315099D01*
X121618612Y-84598433D02*
X121618612Y-85312718D01*
X121618612Y-85312718D02*
X121570993Y-85455575D01*
X121570993Y-85455575D02*
X121475755Y-85550814D01*
X121475755Y-85550814D02*
X121332898Y-85598433D01*
X121332898Y-85598433D02*
X121237660Y-85598433D01*
X122570993Y-84598433D02*
X122094803Y-84598433D01*
X122094803Y-84598433D02*
X122047184Y-85074623D01*
X122047184Y-85074623D02*
X122094803Y-85027004D01*
X122094803Y-85027004D02*
X122190041Y-84979385D01*
X122190041Y-84979385D02*
X122428136Y-84979385D01*
X122428136Y-84979385D02*
X122523374Y-85027004D01*
X122523374Y-85027004D02*
X122570993Y-85074623D01*
X122570993Y-85074623D02*
X122618612Y-85169861D01*
X122618612Y-85169861D02*
X122618612Y-85407956D01*
X122618612Y-85407956D02*
X122570993Y-85503194D01*
X122570993Y-85503194D02*
X122523374Y-85550814D01*
X122523374Y-85550814D02*
X122428136Y-85598433D01*
X122428136Y-85598433D02*
X122190041Y-85598433D01*
X122190041Y-85598433D02*
X122094803Y-85550814D01*
X122094803Y-85550814D02*
X122047184Y-85503194D01*
X192452422Y-88998433D02*
X192452422Y-89712718D01*
X192452422Y-89712718D02*
X192404803Y-89855575D01*
X192404803Y-89855575D02*
X192309565Y-89950814D01*
X192309565Y-89950814D02*
X192166708Y-89998433D01*
X192166708Y-89998433D02*
X192071470Y-89998433D01*
X193452422Y-89998433D02*
X192880994Y-89998433D01*
X193166708Y-89998433D02*
X193166708Y-88998433D01*
X193166708Y-88998433D02*
X193071470Y-89141290D01*
X193071470Y-89141290D02*
X192976232Y-89236528D01*
X192976232Y-89236528D02*
X192880994Y-89284147D01*
X194071470Y-88998433D02*
X194166708Y-88998433D01*
X194166708Y-88998433D02*
X194261946Y-89046052D01*
X194261946Y-89046052D02*
X194309565Y-89093671D01*
X194309565Y-89093671D02*
X194357184Y-89188909D01*
X194357184Y-89188909D02*
X194404803Y-89379385D01*
X194404803Y-89379385D02*
X194404803Y-89617480D01*
X194404803Y-89617480D02*
X194357184Y-89807956D01*
X194357184Y-89807956D02*
X194309565Y-89903194D01*
X194309565Y-89903194D02*
X194261946Y-89950814D01*
X194261946Y-89950814D02*
X194166708Y-89998433D01*
X194166708Y-89998433D02*
X194071470Y-89998433D01*
X194071470Y-89998433D02*
X193976232Y-89950814D01*
X193976232Y-89950814D02*
X193928613Y-89903194D01*
X193928613Y-89903194D02*
X193880994Y-89807956D01*
X193880994Y-89807956D02*
X193833375Y-89617480D01*
X193833375Y-89617480D02*
X193833375Y-89379385D01*
X193833375Y-89379385D02*
X193880994Y-89188909D01*
X193880994Y-89188909D02*
X193928613Y-89093671D01*
X193928613Y-89093671D02*
X193976232Y-89046052D01*
X193976232Y-89046052D02*
X194071470Y-88998433D01*
X138345279Y-122433194D02*
X138297660Y-122480814D01*
X138297660Y-122480814D02*
X138154803Y-122528433D01*
X138154803Y-122528433D02*
X138059565Y-122528433D01*
X138059565Y-122528433D02*
X137916708Y-122480814D01*
X137916708Y-122480814D02*
X137821470Y-122385575D01*
X137821470Y-122385575D02*
X137773851Y-122290337D01*
X137773851Y-122290337D02*
X137726232Y-122099861D01*
X137726232Y-122099861D02*
X137726232Y-121957004D01*
X137726232Y-121957004D02*
X137773851Y-121766528D01*
X137773851Y-121766528D02*
X137821470Y-121671290D01*
X137821470Y-121671290D02*
X137916708Y-121576052D01*
X137916708Y-121576052D02*
X138059565Y-121528433D01*
X138059565Y-121528433D02*
X138154803Y-121528433D01*
X138154803Y-121528433D02*
X138297660Y-121576052D01*
X138297660Y-121576052D02*
X138345279Y-121623671D01*
X138726232Y-121623671D02*
X138773851Y-121576052D01*
X138773851Y-121576052D02*
X138869089Y-121528433D01*
X138869089Y-121528433D02*
X139107184Y-121528433D01*
X139107184Y-121528433D02*
X139202422Y-121576052D01*
X139202422Y-121576052D02*
X139250041Y-121623671D01*
X139250041Y-121623671D02*
X139297660Y-121718909D01*
X139297660Y-121718909D02*
X139297660Y-121814147D01*
X139297660Y-121814147D02*
X139250041Y-121957004D01*
X139250041Y-121957004D02*
X138678613Y-122528433D01*
X138678613Y-122528433D02*
X139297660Y-122528433D01*
X117214265Y-138661947D02*
X117928550Y-138661947D01*
X117928550Y-138661947D02*
X118071407Y-138709566D01*
X118071407Y-138709566D02*
X118166646Y-138804804D01*
X118166646Y-138804804D02*
X118214265Y-138947661D01*
X118214265Y-138947661D02*
X118214265Y-139042899D01*
X117309503Y-138233375D02*
X117261884Y-138185756D01*
X117261884Y-138185756D02*
X117214265Y-138090518D01*
X117214265Y-138090518D02*
X117214265Y-137852423D01*
X117214265Y-137852423D02*
X117261884Y-137757185D01*
X117261884Y-137757185D02*
X117309503Y-137709566D01*
X117309503Y-137709566D02*
X117404741Y-137661947D01*
X117404741Y-137661947D02*
X117499979Y-137661947D01*
X117499979Y-137661947D02*
X117642836Y-137709566D01*
X117642836Y-137709566D02*
X118214265Y-138280994D01*
X118214265Y-138280994D02*
X118214265Y-137661947D01*
X193068612Y-78958433D02*
X193068612Y-79672718D01*
X193068612Y-79672718D02*
X193020993Y-79815575D01*
X193020993Y-79815575D02*
X192925755Y-79910814D01*
X192925755Y-79910814D02*
X192782898Y-79958433D01*
X192782898Y-79958433D02*
X192687660Y-79958433D01*
X193592422Y-79958433D02*
X193782898Y-79958433D01*
X193782898Y-79958433D02*
X193878136Y-79910814D01*
X193878136Y-79910814D02*
X193925755Y-79863194D01*
X193925755Y-79863194D02*
X194020993Y-79720337D01*
X194020993Y-79720337D02*
X194068612Y-79529861D01*
X194068612Y-79529861D02*
X194068612Y-79148909D01*
X194068612Y-79148909D02*
X194020993Y-79053671D01*
X194020993Y-79053671D02*
X193973374Y-79006052D01*
X193973374Y-79006052D02*
X193878136Y-78958433D01*
X193878136Y-78958433D02*
X193687660Y-78958433D01*
X193687660Y-78958433D02*
X193592422Y-79006052D01*
X193592422Y-79006052D02*
X193544803Y-79053671D01*
X193544803Y-79053671D02*
X193497184Y-79148909D01*
X193497184Y-79148909D02*
X193497184Y-79387004D01*
X193497184Y-79387004D02*
X193544803Y-79482242D01*
X193544803Y-79482242D02*
X193592422Y-79529861D01*
X193592422Y-79529861D02*
X193687660Y-79577480D01*
X193687660Y-79577480D02*
X193878136Y-79577480D01*
X193878136Y-79577480D02*
X193973374Y-79529861D01*
X193973374Y-79529861D02*
X194020993Y-79482242D01*
X194020993Y-79482242D02*
X194068612Y-79387004D01*
D12*
X159200041Y-100381033D02*
X159200041Y-101190556D01*
X159200041Y-101190556D02*
X159247660Y-101285794D01*
X159247660Y-101285794D02*
X159295279Y-101333414D01*
X159295279Y-101333414D02*
X159390517Y-101381033D01*
X159390517Y-101381033D02*
X159580993Y-101381033D01*
X159580993Y-101381033D02*
X159676231Y-101333414D01*
X159676231Y-101333414D02*
X159723850Y-101285794D01*
X159723850Y-101285794D02*
X159771469Y-101190556D01*
X159771469Y-101190556D02*
X159771469Y-100381033D01*
X160723850Y-100381033D02*
X160247660Y-100381033D01*
X160247660Y-100381033D02*
X160200041Y-100857223D01*
X160200041Y-100857223D02*
X160247660Y-100809604D01*
X160247660Y-100809604D02*
X160342898Y-100761985D01*
X160342898Y-100761985D02*
X160580993Y-100761985D01*
X160580993Y-100761985D02*
X160676231Y-100809604D01*
X160676231Y-100809604D02*
X160723850Y-100857223D01*
X160723850Y-100857223D02*
X160771469Y-100952461D01*
X160771469Y-100952461D02*
X160771469Y-101190556D01*
X160771469Y-101190556D02*
X160723850Y-101285794D01*
X160723850Y-101285794D02*
X160676231Y-101333414D01*
X160676231Y-101333414D02*
X160580993Y-101381033D01*
X160580993Y-101381033D02*
X160342898Y-101381033D01*
X160342898Y-101381033D02*
X160247660Y-101333414D01*
X160247660Y-101333414D02*
X160200041Y-101285794D01*
D11*
X192682422Y-118558433D02*
X192682422Y-119272718D01*
X192682422Y-119272718D02*
X192634803Y-119415575D01*
X192634803Y-119415575D02*
X192539565Y-119510814D01*
X192539565Y-119510814D02*
X192396708Y-119558433D01*
X192396708Y-119558433D02*
X192301470Y-119558433D01*
X193682422Y-119558433D02*
X193110994Y-119558433D01*
X193396708Y-119558433D02*
X193396708Y-118558433D01*
X193396708Y-118558433D02*
X193301470Y-118701290D01*
X193301470Y-118701290D02*
X193206232Y-118796528D01*
X193206232Y-118796528D02*
X193110994Y-118844147D01*
X194587184Y-118558433D02*
X194110994Y-118558433D01*
X194110994Y-118558433D02*
X194063375Y-119034623D01*
X194063375Y-119034623D02*
X194110994Y-118987004D01*
X194110994Y-118987004D02*
X194206232Y-118939385D01*
X194206232Y-118939385D02*
X194444327Y-118939385D01*
X194444327Y-118939385D02*
X194539565Y-118987004D01*
X194539565Y-118987004D02*
X194587184Y-119034623D01*
X194587184Y-119034623D02*
X194634803Y-119129861D01*
X194634803Y-119129861D02*
X194634803Y-119367956D01*
X194634803Y-119367956D02*
X194587184Y-119463194D01*
X194587184Y-119463194D02*
X194539565Y-119510814D01*
X194539565Y-119510814D02*
X194444327Y-119558433D01*
X194444327Y-119558433D02*
X194206232Y-119558433D01*
X194206232Y-119558433D02*
X194110994Y-119510814D01*
X194110994Y-119510814D02*
X194063375Y-119463194D01*
D13*
%TO.C,J14*%
X189081946Y-63103614D02*
X197441946Y-63103614D01*
X189081946Y-64823614D02*
X197441946Y-64823614D01*
X189081946Y-67923614D02*
X197441946Y-67923614D01*
X189081946Y-68923614D02*
X197441946Y-68923614D01*
X189081946Y-69843614D02*
X189081946Y-63103614D01*
X190421946Y-69843614D02*
X189081946Y-69843614D01*
X197441946Y-63103614D02*
X197441946Y-69843614D01*
X197441946Y-69843614D02*
X191021946Y-69843614D01*
X191161946Y-70453614D02*
X190281946Y-70453614D01*
X190721946Y-69843614D01*
X191161946Y-70453614D01*
G36*
X191161946Y-70453614D02*
G01*
X190281946Y-70453614D01*
X190721946Y-69843614D01*
X191161946Y-70453614D01*
G37*
%TO.C,U2*%
X96106946Y-69228614D02*
X96106946Y-74428614D01*
X96106946Y-74428614D02*
X97756946Y-74428614D01*
X99756946Y-74428614D02*
X101406946Y-74428614D01*
X101406946Y-69228614D02*
X96106946Y-69228614D01*
X101406946Y-74428614D02*
X101406946Y-69228614D01*
X97756946Y-74428614D02*
G75*
G02*
X99756946Y-74428614I1000000J0D01*
G01*
%TO.C,C1*%
X132914623Y-135948614D02*
X133914623Y-135948614D01*
X133414623Y-135448614D02*
X133414623Y-136448614D01*
X138394269Y-133743614D02*
X138394269Y-143903614D01*
X138434269Y-133743614D02*
X138434269Y-143903614D01*
X138474269Y-133744614D02*
X138474269Y-143902614D01*
X138514269Y-133744614D02*
X138514269Y-143902614D01*
X138554269Y-133746614D02*
X138554269Y-143900614D01*
X138594269Y-133747614D02*
X138594269Y-143899614D01*
X138634269Y-133749614D02*
X138634269Y-137783614D01*
X138634269Y-139863614D02*
X138634269Y-143897614D01*
X138674269Y-133751614D02*
X138674269Y-137783614D01*
X138674269Y-139863614D02*
X138674269Y-143895614D01*
X138714269Y-133753614D02*
X138714269Y-137783614D01*
X138714269Y-139863614D02*
X138714269Y-143893614D01*
X138754269Y-133756614D02*
X138754269Y-137783614D01*
X138754269Y-139863614D02*
X138754269Y-143890614D01*
X138794269Y-133759614D02*
X138794269Y-137783614D01*
X138794269Y-139863614D02*
X138794269Y-143887614D01*
X138834269Y-133762614D02*
X138834269Y-137783614D01*
X138834269Y-139863614D02*
X138834269Y-143884614D01*
X138874269Y-133766614D02*
X138874269Y-137783614D01*
X138874269Y-139863614D02*
X138874269Y-143880614D01*
X138914269Y-133769614D02*
X138914269Y-137783614D01*
X138914269Y-139863614D02*
X138914269Y-143877614D01*
X138954269Y-133774614D02*
X138954269Y-137783614D01*
X138954269Y-139863614D02*
X138954269Y-143872614D01*
X138994269Y-133778614D02*
X138994269Y-137783614D01*
X138994269Y-139863614D02*
X138994269Y-143868614D01*
X139034269Y-133783614D02*
X139034269Y-137783614D01*
X139034269Y-139863614D02*
X139034269Y-143863614D01*
X139074269Y-133788614D02*
X139074269Y-137783614D01*
X139074269Y-139863614D02*
X139074269Y-143858614D01*
X139114269Y-133794614D02*
X139114269Y-137783614D01*
X139114269Y-139863614D02*
X139114269Y-143852614D01*
X139154269Y-133800614D02*
X139154269Y-137783614D01*
X139154269Y-139863614D02*
X139154269Y-143846614D01*
X139194269Y-133806614D02*
X139194269Y-137783614D01*
X139194269Y-139863614D02*
X139194269Y-143840614D01*
X139234269Y-133812614D02*
X139234269Y-137783614D01*
X139234269Y-139863614D02*
X139234269Y-143834614D01*
X139274269Y-133819614D02*
X139274269Y-137783614D01*
X139274269Y-139863614D02*
X139274269Y-143827614D01*
X139314269Y-133826614D02*
X139314269Y-137783614D01*
X139314269Y-139863614D02*
X139314269Y-143820614D01*
X139354269Y-133834614D02*
X139354269Y-137783614D01*
X139354269Y-139863614D02*
X139354269Y-143812614D01*
X139394269Y-133842614D02*
X139394269Y-137783614D01*
X139394269Y-139863614D02*
X139394269Y-143804614D01*
X139434269Y-133850614D02*
X139434269Y-137783614D01*
X139434269Y-139863614D02*
X139434269Y-143796614D01*
X139474269Y-133858614D02*
X139474269Y-137783614D01*
X139474269Y-139863614D02*
X139474269Y-143788614D01*
X139514269Y-133867614D02*
X139514269Y-137783614D01*
X139514269Y-139863614D02*
X139514269Y-143779614D01*
X139554269Y-133876614D02*
X139554269Y-137783614D01*
X139554269Y-139863614D02*
X139554269Y-143770614D01*
X139594269Y-133886614D02*
X139594269Y-137783614D01*
X139594269Y-139863614D02*
X139594269Y-143760614D01*
X139634269Y-133895614D02*
X139634269Y-137783614D01*
X139634269Y-139863614D02*
X139634269Y-143751614D01*
X139674269Y-133906614D02*
X139674269Y-137783614D01*
X139674269Y-139863614D02*
X139674269Y-143740614D01*
X139714269Y-133916614D02*
X139714269Y-137783614D01*
X139714269Y-139863614D02*
X139714269Y-143730614D01*
X139754269Y-133927614D02*
X139754269Y-137783614D01*
X139754269Y-139863614D02*
X139754269Y-143719614D01*
X139794269Y-133938614D02*
X139794269Y-137783614D01*
X139794269Y-139863614D02*
X139794269Y-143708614D01*
X139834269Y-133950614D02*
X139834269Y-137783614D01*
X139834269Y-139863614D02*
X139834269Y-143696614D01*
X139874269Y-133962614D02*
X139874269Y-137783614D01*
X139874269Y-139863614D02*
X139874269Y-143684614D01*
X139914269Y-133974614D02*
X139914269Y-137783614D01*
X139914269Y-139863614D02*
X139914269Y-143672614D01*
X139954269Y-133986614D02*
X139954269Y-137783614D01*
X139954269Y-139863614D02*
X139954269Y-143660614D01*
X139994269Y-133999614D02*
X139994269Y-137783614D01*
X139994269Y-139863614D02*
X139994269Y-143647614D01*
X140034269Y-134013614D02*
X140034269Y-137783614D01*
X140034269Y-139863614D02*
X140034269Y-143633614D01*
X140074269Y-134026614D02*
X140074269Y-137783614D01*
X140074269Y-139863614D02*
X140074269Y-143620614D01*
X140114269Y-134041614D02*
X140114269Y-137783614D01*
X140114269Y-139863614D02*
X140114269Y-143605614D01*
X140154269Y-134055614D02*
X140154269Y-137783614D01*
X140154269Y-139863614D02*
X140154269Y-143591614D01*
X140194269Y-134070614D02*
X140194269Y-137783614D01*
X140194269Y-139863614D02*
X140194269Y-143576614D01*
X140234269Y-134085614D02*
X140234269Y-137783614D01*
X140234269Y-139863614D02*
X140234269Y-143561614D01*
X140274269Y-134101614D02*
X140274269Y-137783614D01*
X140274269Y-139863614D02*
X140274269Y-143545614D01*
X140314269Y-134117614D02*
X140314269Y-137783614D01*
X140314269Y-139863614D02*
X140314269Y-143529614D01*
X140354269Y-134133614D02*
X140354269Y-137783614D01*
X140354269Y-139863614D02*
X140354269Y-143513614D01*
X140394269Y-134150614D02*
X140394269Y-137783614D01*
X140394269Y-139863614D02*
X140394269Y-143496614D01*
X140434269Y-134167614D02*
X140434269Y-137783614D01*
X140434269Y-139863614D02*
X140434269Y-143479614D01*
X140474269Y-134185614D02*
X140474269Y-137783614D01*
X140474269Y-139863614D02*
X140474269Y-143461614D01*
X140514269Y-134203614D02*
X140514269Y-137783614D01*
X140514269Y-139863614D02*
X140514269Y-143443614D01*
X140554269Y-134221614D02*
X140554269Y-137783614D01*
X140554269Y-139863614D02*
X140554269Y-143425614D01*
X140594269Y-134240614D02*
X140594269Y-137783614D01*
X140594269Y-139863614D02*
X140594269Y-143406614D01*
X140634269Y-134259614D02*
X140634269Y-137783614D01*
X140634269Y-139863614D02*
X140634269Y-143387614D01*
X140674269Y-134279614D02*
X140674269Y-137783614D01*
X140674269Y-139863614D02*
X140674269Y-143367614D01*
X140714269Y-134299614D02*
X140714269Y-143347614D01*
X140754269Y-134319614D02*
X140754269Y-143327614D01*
X140794269Y-134340614D02*
X140794269Y-143306614D01*
X140834269Y-134362614D02*
X140834269Y-143284614D01*
X140874269Y-134384614D02*
X140874269Y-143262614D01*
X140914269Y-134406614D02*
X140914269Y-143240614D01*
X140954269Y-134429614D02*
X140954269Y-143217614D01*
X140994269Y-134452614D02*
X140994269Y-143194614D01*
X141034269Y-134476614D02*
X141034269Y-143170614D01*
X141074269Y-134500614D02*
X141074269Y-143146614D01*
X141114269Y-134525614D02*
X141114269Y-143121614D01*
X141154269Y-134551614D02*
X141154269Y-143095614D01*
X141194269Y-134576614D02*
X141194269Y-143070614D01*
X141234269Y-134603614D02*
X141234269Y-143043614D01*
X141274269Y-134630614D02*
X141274269Y-143016614D01*
X141314269Y-134657614D02*
X141314269Y-142989614D01*
X141354269Y-134685614D02*
X141354269Y-142961614D01*
X141394269Y-134714614D02*
X141394269Y-142932614D01*
X141434269Y-134743614D02*
X141434269Y-142903614D01*
X141474269Y-134773614D02*
X141474269Y-142873614D01*
X141514269Y-134803614D02*
X141514269Y-142843614D01*
X141554269Y-134835614D02*
X141554269Y-142811614D01*
X141594269Y-134866614D02*
X141594269Y-142780614D01*
X141634269Y-134899614D02*
X141634269Y-142747614D01*
X141674269Y-134932614D02*
X141674269Y-142714614D01*
X141714269Y-134965614D02*
X141714269Y-142681614D01*
X141754269Y-135000614D02*
X141754269Y-142646614D01*
X141794269Y-135035614D02*
X141794269Y-142611614D01*
X141834269Y-135071614D02*
X141834269Y-142575614D01*
X141874269Y-135107614D02*
X141874269Y-142539614D01*
X141914269Y-135145614D02*
X141914269Y-142501614D01*
X141954269Y-135183614D02*
X141954269Y-142463614D01*
X141994269Y-135222614D02*
X141994269Y-142424614D01*
X142034269Y-135262614D02*
X142034269Y-142384614D01*
X142074269Y-135303614D02*
X142074269Y-142343614D01*
X142114269Y-135345614D02*
X142114269Y-142301614D01*
X142154269Y-135388614D02*
X142154269Y-142258614D01*
X142194269Y-135432614D02*
X142194269Y-142214614D01*
X142234269Y-135476614D02*
X142234269Y-142170614D01*
X142274269Y-135522614D02*
X142274269Y-142124614D01*
X142314269Y-135569614D02*
X142314269Y-142077614D01*
X142354269Y-135618614D02*
X142354269Y-142028614D01*
X142394269Y-135667614D02*
X142394269Y-141979614D01*
X142434269Y-135718614D02*
X142434269Y-141928614D01*
X142474269Y-135770614D02*
X142474269Y-141876614D01*
X142514269Y-135823614D02*
X142514269Y-141823614D01*
X142554269Y-135878614D02*
X142554269Y-141768614D01*
X142594269Y-135935614D02*
X142594269Y-141711614D01*
X142634269Y-135993614D02*
X142634269Y-141653614D01*
X142674269Y-136053614D02*
X142674269Y-141593614D01*
X142714269Y-136115614D02*
X142714269Y-141531614D01*
X142754269Y-136179614D02*
X142754269Y-141467614D01*
X142794269Y-136245614D02*
X142794269Y-141401614D01*
X142834269Y-136313614D02*
X142834269Y-141333614D01*
X142874269Y-136384614D02*
X142874269Y-141262614D01*
X142914269Y-136458614D02*
X142914269Y-141188614D01*
X142954269Y-136535614D02*
X142954269Y-141111614D01*
X142994269Y-136615614D02*
X142994269Y-141031614D01*
X143034269Y-136699614D02*
X143034269Y-140947614D01*
X143074269Y-136786614D02*
X143074269Y-140860614D01*
X143114269Y-136879614D02*
X143114269Y-140767614D01*
X143154269Y-136977614D02*
X143154269Y-140669614D01*
X143194269Y-137081614D02*
X143194269Y-140565614D01*
X143234269Y-137193614D02*
X143234269Y-140453614D01*
X143274269Y-137314614D02*
X143274269Y-140332614D01*
X143314269Y-137446614D02*
X143314269Y-140200614D01*
X143354269Y-137593614D02*
X143354269Y-140053614D01*
X143394269Y-137761614D02*
X143394269Y-139885614D01*
X143434269Y-137961614D02*
X143434269Y-139685614D01*
X143474269Y-138224614D02*
X143474269Y-139422614D01*
X143514269Y-138823614D02*
G75*
G02*
X133274269Y-138823614I-5120000J0D01*
G01*
X133274269Y-138823614D02*
G75*
G02*
X143514269Y-138823614I5120000J0D01*
G01*
%TO.C,MP1_5*%
D12*
X165379946Y-142372614D02*
X182143946Y-142372614D01*
X182143946Y-120274614D01*
X165379946Y-120274614D01*
X165379946Y-142372614D01*
X167157946Y-139458102D02*
X167177946Y-139458102D01*
X167577946Y-139458102D02*
X167597946Y-139458102D01*
X167997946Y-139458102D02*
X168017946Y-139458102D01*
X168417946Y-139458102D02*
X168437946Y-139458102D01*
X168837946Y-139458102D02*
X168857946Y-139458102D01*
X169257946Y-139458102D02*
X169277946Y-139458102D01*
X169677946Y-139458102D02*
X169697946Y-139458102D01*
X170097946Y-139458102D02*
X170117946Y-139458102D01*
X170517946Y-139458102D02*
X170537946Y-139458102D01*
X170937946Y-139458102D02*
X170957946Y-139458102D01*
X171357946Y-139458102D02*
X171377946Y-139458102D01*
X171777946Y-139458102D02*
X171797946Y-139458102D01*
X172197946Y-139458102D02*
X172217946Y-139458102D01*
X172617946Y-139458102D02*
X172637946Y-139458102D01*
X173037946Y-139458102D02*
X173057946Y-139458102D01*
X173457946Y-139458102D02*
X173477946Y-139458102D01*
X173877946Y-139458102D02*
X173897946Y-139458102D01*
X174297946Y-139458102D02*
X174317946Y-139458102D01*
X174717946Y-139458102D02*
X174737946Y-139458102D01*
X175137946Y-139458102D02*
X175157946Y-139458102D01*
X175557946Y-139458102D02*
X175577946Y-139458102D01*
X175977946Y-139458102D02*
X175997946Y-139458102D01*
X176397946Y-139458102D02*
X176417946Y-139458102D01*
X176817946Y-139458102D02*
X176837946Y-139458102D01*
X177237946Y-139458102D02*
X177257946Y-139458102D01*
X177657946Y-139458102D02*
X177677946Y-139458102D01*
X178077946Y-139458102D02*
X178097946Y-139458102D01*
X178497946Y-139458102D02*
X178517946Y-139458102D01*
X178917946Y-139458102D02*
X178937946Y-139458102D01*
X179337946Y-139458102D02*
X179357946Y-139458102D01*
X179757946Y-139458102D02*
X179777946Y-139458102D01*
X180177946Y-139458102D02*
X180197946Y-139458102D01*
X180365946Y-139458102D02*
X180365946Y-139438102D01*
X180365946Y-139038102D02*
X180365946Y-139018102D01*
X180365946Y-138618102D02*
X180365946Y-138598102D01*
X180365946Y-138198102D02*
X180365946Y-138178102D01*
X180365946Y-137778102D02*
X180365946Y-137758102D01*
X180365946Y-137358102D02*
X180365946Y-137338102D01*
X180365946Y-136938102D02*
X180365946Y-136918102D01*
X180365946Y-136518102D02*
X180365946Y-136498102D01*
X180365946Y-136098102D02*
X180365946Y-136078102D01*
X180365946Y-135678102D02*
X180365946Y-135658102D01*
X180365946Y-135258102D02*
X180365946Y-135238102D01*
X180365946Y-134838102D02*
X180365946Y-134818102D01*
X180365946Y-134418102D02*
X180365946Y-134398102D01*
X180365946Y-133998102D02*
X180365946Y-133978102D01*
X180365946Y-133578102D02*
X180365946Y-133558102D01*
X180365946Y-133158102D02*
X180365946Y-133138102D01*
X180365946Y-132738102D02*
X180365946Y-132718102D01*
X180365946Y-132318102D02*
X180365946Y-132298102D01*
X180365946Y-131898102D02*
X180365946Y-131878102D01*
X180365946Y-131478102D02*
X180365946Y-131458102D01*
X180365946Y-131058102D02*
X180365946Y-131038102D01*
X180365946Y-130638102D02*
X180365946Y-130618102D01*
X180365946Y-130218102D02*
X180365946Y-130198102D01*
X180365946Y-129798102D02*
X180365946Y-129778102D01*
X180365946Y-129378102D02*
X180365946Y-129358102D01*
X180365946Y-128958102D02*
X180365946Y-128938102D01*
X180365946Y-128538102D02*
X180365946Y-128518102D01*
X180365946Y-128118102D02*
X180365946Y-128098102D01*
X180365946Y-127698102D02*
X180365946Y-127678102D01*
X180365946Y-127278102D02*
X180365946Y-127258102D01*
X180365946Y-126858102D02*
X180365946Y-126838102D01*
X180365946Y-126438102D02*
X180365946Y-126418102D01*
X180365946Y-126018102D02*
X180365946Y-125998102D01*
X180365946Y-125598102D02*
X180365946Y-125578102D01*
X180365946Y-125178102D02*
X180365946Y-125158102D01*
X180365946Y-124758102D02*
X180365946Y-124738102D01*
X180365946Y-124338102D02*
X180365946Y-124318102D01*
X180365946Y-123918102D02*
X180365946Y-123898102D01*
X180365946Y-123498102D02*
X180365946Y-123478102D01*
X180365946Y-123355703D02*
X180345946Y-123355703D01*
X179945946Y-123355703D02*
X179925946Y-123355703D01*
X179525946Y-123355703D02*
X179505946Y-123355703D01*
X179105946Y-123355703D02*
X179085946Y-123355703D01*
X178685946Y-123355703D02*
X178665946Y-123355703D01*
X178265946Y-123355703D02*
X178245946Y-123355703D01*
X177845946Y-123355703D02*
X177825946Y-123355703D01*
X177425946Y-123355703D02*
X177405946Y-123355703D01*
X177005946Y-123355703D02*
X176985946Y-123355703D01*
X176585946Y-123355703D02*
X176565946Y-123355703D01*
X176165946Y-123355703D02*
X176145946Y-123355703D01*
X175745946Y-123355703D02*
X175725946Y-123355703D01*
X175325946Y-123355703D02*
X175305946Y-123355703D01*
X174905946Y-123355703D02*
X174885946Y-123355703D01*
X174485946Y-123355703D02*
X174465946Y-123355703D01*
X174065946Y-123355703D02*
X174045946Y-123355703D01*
X173645946Y-123355703D02*
X173625946Y-123355703D01*
X173225946Y-123355703D02*
X173205946Y-123355703D01*
X172805946Y-123355703D02*
X172785946Y-123355703D01*
X172385946Y-123355703D02*
X172365946Y-123355703D01*
X171965946Y-123355703D02*
X171945946Y-123355703D01*
X171545946Y-123355703D02*
X171525946Y-123355703D01*
X171125946Y-123355703D02*
X171105946Y-123355703D01*
X170705946Y-123355703D02*
X170685946Y-123355703D01*
X170285946Y-123355703D02*
X170265946Y-123355703D01*
X169865946Y-123355703D02*
X169845946Y-123355703D01*
X169445946Y-123355703D02*
X169425946Y-123355703D01*
X169025946Y-123355703D02*
X169005946Y-123355703D01*
X168605946Y-123355703D02*
X168585946Y-123355703D01*
X168185946Y-123355703D02*
X168165946Y-123355703D01*
X167765946Y-123355703D02*
X167745946Y-123355703D01*
X167345946Y-123355703D02*
X167325946Y-123355703D01*
X167157946Y-123355703D02*
X167157946Y-123375703D01*
X167157946Y-123775703D02*
X167157946Y-123795703D01*
X167157946Y-124195703D02*
X167157946Y-124215703D01*
X167157946Y-124615703D02*
X167157946Y-124635703D01*
X167157946Y-125035703D02*
X167157946Y-125055703D01*
X167157946Y-125455703D02*
X167157946Y-125475703D01*
X167157946Y-125875703D02*
X167157946Y-125895703D01*
X167157946Y-126295703D02*
X167157946Y-126315703D01*
X167157946Y-126715703D02*
X167157946Y-126735703D01*
X167157946Y-127135703D02*
X167157946Y-127155703D01*
X167157946Y-127555703D02*
X167157946Y-127575703D01*
X167157946Y-127975703D02*
X167157946Y-127995703D01*
X167157946Y-128395703D02*
X167157946Y-128415703D01*
X167157946Y-128815703D02*
X167157946Y-128835703D01*
X167157946Y-129235703D02*
X167157946Y-129255703D01*
X167157946Y-129655703D02*
X167157946Y-129675703D01*
X167157946Y-130075703D02*
X167157946Y-130095703D01*
X167157946Y-130495703D02*
X167157946Y-130515703D01*
X167157946Y-130915703D02*
X167157946Y-130935703D01*
X167157946Y-131335703D02*
X167157946Y-131355703D01*
X167157946Y-131755703D02*
X167157946Y-131775703D01*
X167157946Y-132175703D02*
X167157946Y-132195703D01*
X167157946Y-132595703D02*
X167157946Y-132615703D01*
X167157946Y-133015703D02*
X167157946Y-133035703D01*
X167157946Y-133435703D02*
X167157946Y-133455703D01*
X167157946Y-133855703D02*
X167157946Y-133875703D01*
X167157946Y-134275703D02*
X167157946Y-134295703D01*
X167157946Y-134695703D02*
X167157946Y-134715703D01*
X167157946Y-135115703D02*
X167157946Y-135135703D01*
X167157946Y-135535703D02*
X167157946Y-135555703D01*
X167157946Y-135955703D02*
X167157946Y-135975703D01*
X167157946Y-136375703D02*
X167157946Y-136395703D01*
X167157946Y-136795703D02*
X167157946Y-136815703D01*
X167157946Y-137215703D02*
X167157946Y-137235703D01*
X167157946Y-137635703D02*
X167157946Y-137655703D01*
X167157946Y-138055703D02*
X167157946Y-138075703D01*
X167157946Y-138475703D02*
X167157946Y-138495703D01*
X167157946Y-138895703D02*
X167157946Y-138915703D01*
X167157946Y-139315703D02*
X167157946Y-139335703D01*
X169697946Y-138181015D02*
X169717946Y-138181015D01*
X170117946Y-138181015D02*
X170137946Y-138181015D01*
X170537946Y-138181015D02*
X170557946Y-138181015D01*
X170957946Y-138181015D02*
X170977946Y-138181015D01*
X171377946Y-138181015D02*
X171397946Y-138181015D01*
X171797946Y-138181015D02*
X171817946Y-138181015D01*
X172217946Y-138181015D02*
X172237946Y-138181015D01*
X172637946Y-138181015D02*
X172657946Y-138181015D01*
X173057946Y-138181015D02*
X173077946Y-138181015D01*
X173477946Y-138181015D02*
X173497946Y-138181015D01*
X173897946Y-138181015D02*
X173917946Y-138181015D01*
X174317946Y-138181015D02*
X174337946Y-138181015D01*
X174737946Y-138181015D02*
X174757946Y-138181015D01*
X175157946Y-138181015D02*
X175177946Y-138181015D01*
X175577946Y-138181015D02*
X175597946Y-138181015D01*
X175997946Y-138181015D02*
X176017946Y-138181015D01*
X176417946Y-138181015D02*
X176437946Y-138181015D01*
X176837946Y-138181015D02*
X176857946Y-138181015D01*
X177257946Y-138181015D02*
X177277946Y-138181015D01*
X177677946Y-138181015D02*
X177697946Y-138181015D01*
X177825946Y-138181015D02*
X177825946Y-138161015D01*
X177825946Y-137761015D02*
X177825946Y-137741015D01*
X177825946Y-137341015D02*
X177825946Y-137321015D01*
X177825946Y-136921015D02*
X177825946Y-136901015D01*
X177825946Y-136501015D02*
X177825946Y-136481015D01*
X177825946Y-136081015D02*
X177825946Y-136061015D01*
X177825946Y-135661015D02*
X177825946Y-135641015D01*
X177825946Y-135241015D02*
X177825946Y-135221015D01*
X177825946Y-134821015D02*
X177825946Y-134801015D01*
X177825946Y-134401015D02*
X177825946Y-134381015D01*
X177825946Y-133981015D02*
X177825946Y-133961015D01*
X177825946Y-133561015D02*
X177825946Y-133541015D01*
X177825946Y-133141015D02*
X177825946Y-133121015D01*
X177825946Y-132721015D02*
X177825946Y-132701015D01*
X177825946Y-132301015D02*
X177825946Y-132281015D01*
X177825946Y-131881015D02*
X177825946Y-131861015D01*
X177825946Y-131461015D02*
X177825946Y-131441015D01*
X177825946Y-131041015D02*
X177825946Y-131021015D01*
X177825946Y-130621015D02*
X177825946Y-130601015D01*
X177825946Y-130201015D02*
X177825946Y-130181015D01*
X177825946Y-129781015D02*
X177825946Y-129761015D01*
X177825946Y-129361015D02*
X177825946Y-129341015D01*
X177825946Y-128941015D02*
X177825946Y-128921015D01*
X177825946Y-128521015D02*
X177825946Y-128501015D01*
X177825946Y-128101015D02*
X177825946Y-128081015D01*
X177825946Y-127681015D02*
X177825946Y-127661015D01*
X177825946Y-127261015D02*
X177825946Y-127241015D01*
X177825946Y-126841015D02*
X177825946Y-126821015D01*
X177825946Y-126421015D02*
X177825946Y-126401015D01*
X177825946Y-126001015D02*
X177825946Y-125981015D01*
X177825946Y-125581015D02*
X177825946Y-125561015D01*
X177825946Y-125161015D02*
X177825946Y-125141015D01*
X177825946Y-124741015D02*
X177825946Y-124721015D01*
X177825946Y-124438450D02*
X177805946Y-124438450D01*
X177405946Y-124438450D02*
X177385946Y-124438450D01*
X176985946Y-124438450D02*
X176965946Y-124438450D01*
X176565946Y-124438450D02*
X176545946Y-124438450D01*
X176145946Y-124438450D02*
X176125946Y-124438450D01*
X175725946Y-124438450D02*
X175705946Y-124438450D01*
X175305946Y-124438450D02*
X175285946Y-124438450D01*
X174885946Y-124438450D02*
X174865946Y-124438450D01*
X174465946Y-124438450D02*
X174445946Y-124438450D01*
X174045946Y-124438450D02*
X174025946Y-124438450D01*
X173625946Y-124438450D02*
X173605946Y-124438450D01*
X173205946Y-124438450D02*
X173185946Y-124438450D01*
X172785946Y-124438450D02*
X172765946Y-124438450D01*
X172365946Y-124438450D02*
X172345946Y-124438450D01*
X171945946Y-124438450D02*
X171925946Y-124438450D01*
X171525946Y-124438450D02*
X171505946Y-124438450D01*
X171105946Y-124438450D02*
X171085946Y-124438450D01*
X170685946Y-124438450D02*
X170665946Y-124438450D01*
X170265946Y-124438450D02*
X170245946Y-124438450D01*
X169845946Y-124438450D02*
X169825946Y-124438450D01*
X169697946Y-124438450D02*
X169697946Y-124458450D01*
X169697946Y-124858450D02*
X169697946Y-124878450D01*
X169697946Y-125278450D02*
X169697946Y-125298450D01*
X169697946Y-125698450D02*
X169697946Y-125718450D01*
X169697946Y-126118450D02*
X169697946Y-126138450D01*
X169697946Y-126538450D02*
X169697946Y-126558450D01*
X169697946Y-126958450D02*
X169697946Y-126978450D01*
X169697946Y-127378450D02*
X169697946Y-127398450D01*
X169697946Y-127798450D02*
X169697946Y-127818450D01*
X169697946Y-128218450D02*
X169697946Y-128238450D01*
X169697946Y-128638450D02*
X169697946Y-128658450D01*
X169697946Y-129058450D02*
X169697946Y-129078450D01*
X169697946Y-129478450D02*
X169697946Y-129498450D01*
X169697946Y-129898450D02*
X169697946Y-129918450D01*
X169697946Y-130318450D02*
X169697946Y-130338450D01*
X169697946Y-130738450D02*
X169697946Y-130758450D01*
X169697946Y-131158450D02*
X169697946Y-131178450D01*
X169697946Y-131578450D02*
X169697946Y-131598450D01*
X169697946Y-131998450D02*
X169697946Y-132018450D01*
X169697946Y-132418450D02*
X169697946Y-132438450D01*
X169697946Y-132838450D02*
X169697946Y-132858450D01*
X169697946Y-133258450D02*
X169697946Y-133278450D01*
X169697946Y-133678450D02*
X169697946Y-133698450D01*
X169697946Y-134098450D02*
X169697946Y-134118450D01*
X169697946Y-134518450D02*
X169697946Y-134538450D01*
X169697946Y-134938450D02*
X169697946Y-134958450D01*
X169697946Y-135358450D02*
X169697946Y-135378450D01*
X169697946Y-135778450D02*
X169697946Y-135798450D01*
X169697946Y-136198450D02*
X169697946Y-136218450D01*
X169697946Y-136618450D02*
X169697946Y-136638450D01*
X169697946Y-137038450D02*
X169697946Y-137058450D01*
X169697946Y-137458450D02*
X169697946Y-137478450D01*
X169697946Y-137878450D02*
X169697946Y-137898450D01*
D13*
%TO.C,J7*%
X116041946Y-107353614D02*
X129481946Y-107353614D01*
X116041946Y-109073614D02*
X129481946Y-109073614D01*
X116041946Y-112173614D02*
X129481946Y-112173614D01*
X116041946Y-113173614D02*
X129481946Y-113173614D01*
X116041946Y-114093614D02*
X116041946Y-107353614D01*
X117381946Y-114093614D02*
X116041946Y-114093614D01*
X129481946Y-107353614D02*
X129481946Y-114093614D01*
X129481946Y-114093614D02*
X117981946Y-114093614D01*
X118121946Y-114703614D02*
X117241946Y-114703614D01*
X117681946Y-114093614D01*
X118121946Y-114703614D01*
G36*
X118121946Y-114703614D02*
G01*
X117241946Y-114703614D01*
X117681946Y-114093614D01*
X118121946Y-114703614D01*
G37*
%TO.C,J6*%
X116831946Y-78603614D02*
X127731946Y-78603614D01*
X116831946Y-80323614D02*
X127731946Y-80323614D01*
X116831946Y-83423614D02*
X127731946Y-83423614D01*
X116831946Y-84423614D02*
X127731946Y-84423614D01*
X116831946Y-85343614D02*
X116831946Y-78603614D01*
X118171946Y-85343614D02*
X116831946Y-85343614D01*
X127731946Y-78603614D02*
X127731946Y-85343614D01*
X127731946Y-85343614D02*
X118771946Y-85343614D01*
X118911946Y-85953614D02*
X118031946Y-85953614D01*
X118471946Y-85343614D01*
X118911946Y-85953614D01*
G36*
X118911946Y-85953614D02*
G01*
X118031946Y-85953614D01*
X118471946Y-85343614D01*
X118911946Y-85953614D01*
G37*
%TO.C,MP2_3.3*%
D12*
X145879946Y-142872614D02*
X162643946Y-142872614D01*
X162643946Y-120774614D01*
X145879946Y-120774614D01*
X145879946Y-142872614D01*
X147657946Y-139958102D02*
X147677946Y-139958102D01*
X148077946Y-139958102D02*
X148097946Y-139958102D01*
X148497946Y-139958102D02*
X148517946Y-139958102D01*
X148917946Y-139958102D02*
X148937946Y-139958102D01*
X149337946Y-139958102D02*
X149357946Y-139958102D01*
X149757946Y-139958102D02*
X149777946Y-139958102D01*
X150177946Y-139958102D02*
X150197946Y-139958102D01*
X150597946Y-139958102D02*
X150617946Y-139958102D01*
X151017946Y-139958102D02*
X151037946Y-139958102D01*
X151437946Y-139958102D02*
X151457946Y-139958102D01*
X151857946Y-139958102D02*
X151877946Y-139958102D01*
X152277946Y-139958102D02*
X152297946Y-139958102D01*
X152697946Y-139958102D02*
X152717946Y-139958102D01*
X153117946Y-139958102D02*
X153137946Y-139958102D01*
X153537946Y-139958102D02*
X153557946Y-139958102D01*
X153957946Y-139958102D02*
X153977946Y-139958102D01*
X154377946Y-139958102D02*
X154397946Y-139958102D01*
X154797946Y-139958102D02*
X154817946Y-139958102D01*
X155217946Y-139958102D02*
X155237946Y-139958102D01*
X155637946Y-139958102D02*
X155657946Y-139958102D01*
X156057946Y-139958102D02*
X156077946Y-139958102D01*
X156477946Y-139958102D02*
X156497946Y-139958102D01*
X156897946Y-139958102D02*
X156917946Y-139958102D01*
X157317946Y-139958102D02*
X157337946Y-139958102D01*
X157737946Y-139958102D02*
X157757946Y-139958102D01*
X158157946Y-139958102D02*
X158177946Y-139958102D01*
X158577946Y-139958102D02*
X158597946Y-139958102D01*
X158997946Y-139958102D02*
X159017946Y-139958102D01*
X159417946Y-139958102D02*
X159437946Y-139958102D01*
X159837946Y-139958102D02*
X159857946Y-139958102D01*
X160257946Y-139958102D02*
X160277946Y-139958102D01*
X160677946Y-139958102D02*
X160697946Y-139958102D01*
X160865946Y-139958102D02*
X160865946Y-139938102D01*
X160865946Y-139538102D02*
X160865946Y-139518102D01*
X160865946Y-139118102D02*
X160865946Y-139098102D01*
X160865946Y-138698102D02*
X160865946Y-138678102D01*
X160865946Y-138278102D02*
X160865946Y-138258102D01*
X160865946Y-137858102D02*
X160865946Y-137838102D01*
X160865946Y-137438102D02*
X160865946Y-137418102D01*
X160865946Y-137018102D02*
X160865946Y-136998102D01*
X160865946Y-136598102D02*
X160865946Y-136578102D01*
X160865946Y-136178102D02*
X160865946Y-136158102D01*
X160865946Y-135758102D02*
X160865946Y-135738102D01*
X160865946Y-135338102D02*
X160865946Y-135318102D01*
X160865946Y-134918102D02*
X160865946Y-134898102D01*
X160865946Y-134498102D02*
X160865946Y-134478102D01*
X160865946Y-134078102D02*
X160865946Y-134058102D01*
X160865946Y-133658102D02*
X160865946Y-133638102D01*
X160865946Y-133238102D02*
X160865946Y-133218102D01*
X160865946Y-132818102D02*
X160865946Y-132798102D01*
X160865946Y-132398102D02*
X160865946Y-132378102D01*
X160865946Y-131978102D02*
X160865946Y-131958102D01*
X160865946Y-131558102D02*
X160865946Y-131538102D01*
X160865946Y-131138102D02*
X160865946Y-131118102D01*
X160865946Y-130718102D02*
X160865946Y-130698102D01*
X160865946Y-130298102D02*
X160865946Y-130278102D01*
X160865946Y-129878102D02*
X160865946Y-129858102D01*
X160865946Y-129458102D02*
X160865946Y-129438102D01*
X160865946Y-129038102D02*
X160865946Y-129018102D01*
X160865946Y-128618102D02*
X160865946Y-128598102D01*
X160865946Y-128198102D02*
X160865946Y-128178102D01*
X160865946Y-127778102D02*
X160865946Y-127758102D01*
X160865946Y-127358102D02*
X160865946Y-127338102D01*
X160865946Y-126938102D02*
X160865946Y-126918102D01*
X160865946Y-126518102D02*
X160865946Y-126498102D01*
X160865946Y-126098102D02*
X160865946Y-126078102D01*
X160865946Y-125678102D02*
X160865946Y-125658102D01*
X160865946Y-125258102D02*
X160865946Y-125238102D01*
X160865946Y-124838102D02*
X160865946Y-124818102D01*
X160865946Y-124418102D02*
X160865946Y-124398102D01*
X160865946Y-123998102D02*
X160865946Y-123978102D01*
X160865946Y-123855703D02*
X160845946Y-123855703D01*
X160445946Y-123855703D02*
X160425946Y-123855703D01*
X160025946Y-123855703D02*
X160005946Y-123855703D01*
X159605946Y-123855703D02*
X159585946Y-123855703D01*
X159185946Y-123855703D02*
X159165946Y-123855703D01*
X158765946Y-123855703D02*
X158745946Y-123855703D01*
X158345946Y-123855703D02*
X158325946Y-123855703D01*
X157925946Y-123855703D02*
X157905946Y-123855703D01*
X157505946Y-123855703D02*
X157485946Y-123855703D01*
X157085946Y-123855703D02*
X157065946Y-123855703D01*
X156665946Y-123855703D02*
X156645946Y-123855703D01*
X156245946Y-123855703D02*
X156225946Y-123855703D01*
X155825946Y-123855703D02*
X155805946Y-123855703D01*
X155405946Y-123855703D02*
X155385946Y-123855703D01*
X154985946Y-123855703D02*
X154965946Y-123855703D01*
X154565946Y-123855703D02*
X154545946Y-123855703D01*
X154145946Y-123855703D02*
X154125946Y-123855703D01*
X153725946Y-123855703D02*
X153705946Y-123855703D01*
X153305946Y-123855703D02*
X153285946Y-123855703D01*
X152885946Y-123855703D02*
X152865946Y-123855703D01*
X152465946Y-123855703D02*
X152445946Y-123855703D01*
X152045946Y-123855703D02*
X152025946Y-123855703D01*
X151625946Y-123855703D02*
X151605946Y-123855703D01*
X151205946Y-123855703D02*
X151185946Y-123855703D01*
X150785946Y-123855703D02*
X150765946Y-123855703D01*
X150365946Y-123855703D02*
X150345946Y-123855703D01*
X149945946Y-123855703D02*
X149925946Y-123855703D01*
X149525946Y-123855703D02*
X149505946Y-123855703D01*
X149105946Y-123855703D02*
X149085946Y-123855703D01*
X148685946Y-123855703D02*
X148665946Y-123855703D01*
X148265946Y-123855703D02*
X148245946Y-123855703D01*
X147845946Y-123855703D02*
X147825946Y-123855703D01*
X147657946Y-123855703D02*
X147657946Y-123875703D01*
X147657946Y-124275703D02*
X147657946Y-124295703D01*
X147657946Y-124695703D02*
X147657946Y-124715703D01*
X147657946Y-125115703D02*
X147657946Y-125135703D01*
X147657946Y-125535703D02*
X147657946Y-125555703D01*
X147657946Y-125955703D02*
X147657946Y-125975703D01*
X147657946Y-126375703D02*
X147657946Y-126395703D01*
X147657946Y-126795703D02*
X147657946Y-126815703D01*
X147657946Y-127215703D02*
X147657946Y-127235703D01*
X147657946Y-127635703D02*
X147657946Y-127655703D01*
X147657946Y-128055703D02*
X147657946Y-128075703D01*
X147657946Y-128475703D02*
X147657946Y-128495703D01*
X147657946Y-128895703D02*
X147657946Y-128915703D01*
X147657946Y-129315703D02*
X147657946Y-129335703D01*
X147657946Y-129735703D02*
X147657946Y-129755703D01*
X147657946Y-130155703D02*
X147657946Y-130175703D01*
X147657946Y-130575703D02*
X147657946Y-130595703D01*
X147657946Y-130995703D02*
X147657946Y-131015703D01*
X147657946Y-131415703D02*
X147657946Y-131435703D01*
X147657946Y-131835703D02*
X147657946Y-131855703D01*
X147657946Y-132255703D02*
X147657946Y-132275703D01*
X147657946Y-132675703D02*
X147657946Y-132695703D01*
X147657946Y-133095703D02*
X147657946Y-133115703D01*
X147657946Y-133515703D02*
X147657946Y-133535703D01*
X147657946Y-133935703D02*
X147657946Y-133955703D01*
X147657946Y-134355703D02*
X147657946Y-134375703D01*
X147657946Y-134775703D02*
X147657946Y-134795703D01*
X147657946Y-135195703D02*
X147657946Y-135215703D01*
X147657946Y-135615703D02*
X147657946Y-135635703D01*
X147657946Y-136035703D02*
X147657946Y-136055703D01*
X147657946Y-136455703D02*
X147657946Y-136475703D01*
X147657946Y-136875703D02*
X147657946Y-136895703D01*
X147657946Y-137295703D02*
X147657946Y-137315703D01*
X147657946Y-137715703D02*
X147657946Y-137735703D01*
X147657946Y-138135703D02*
X147657946Y-138155703D01*
X147657946Y-138555703D02*
X147657946Y-138575703D01*
X147657946Y-138975703D02*
X147657946Y-138995703D01*
X147657946Y-139395703D02*
X147657946Y-139415703D01*
X147657946Y-139815703D02*
X147657946Y-139835703D01*
X150197946Y-138681015D02*
X150217946Y-138681015D01*
X150617946Y-138681015D02*
X150637946Y-138681015D01*
X151037946Y-138681015D02*
X151057946Y-138681015D01*
X151457946Y-138681015D02*
X151477946Y-138681015D01*
X151877946Y-138681015D02*
X151897946Y-138681015D01*
X152297946Y-138681015D02*
X152317946Y-138681015D01*
X152717946Y-138681015D02*
X152737946Y-138681015D01*
X153137946Y-138681015D02*
X153157946Y-138681015D01*
X153557946Y-138681015D02*
X153577946Y-138681015D01*
X153977946Y-138681015D02*
X153997946Y-138681015D01*
X154397946Y-138681015D02*
X154417946Y-138681015D01*
X154817946Y-138681015D02*
X154837946Y-138681015D01*
X155237946Y-138681015D02*
X155257946Y-138681015D01*
X155657946Y-138681015D02*
X155677946Y-138681015D01*
X156077946Y-138681015D02*
X156097946Y-138681015D01*
X156497946Y-138681015D02*
X156517946Y-138681015D01*
X156917946Y-138681015D02*
X156937946Y-138681015D01*
X157337946Y-138681015D02*
X157357946Y-138681015D01*
X157757946Y-138681015D02*
X157777946Y-138681015D01*
X158177946Y-138681015D02*
X158197946Y-138681015D01*
X158325946Y-138681015D02*
X158325946Y-138661015D01*
X158325946Y-138261015D02*
X158325946Y-138241015D01*
X158325946Y-137841015D02*
X158325946Y-137821015D01*
X158325946Y-137421015D02*
X158325946Y-137401015D01*
X158325946Y-137001015D02*
X158325946Y-136981015D01*
X158325946Y-136581015D02*
X158325946Y-136561015D01*
X158325946Y-136161015D02*
X158325946Y-136141015D01*
X158325946Y-135741015D02*
X158325946Y-135721015D01*
X158325946Y-135321015D02*
X158325946Y-135301015D01*
X158325946Y-134901015D02*
X158325946Y-134881015D01*
X158325946Y-134481015D02*
X158325946Y-134461015D01*
X158325946Y-134061015D02*
X158325946Y-134041015D01*
X158325946Y-133641015D02*
X158325946Y-133621015D01*
X158325946Y-133221015D02*
X158325946Y-133201015D01*
X158325946Y-132801015D02*
X158325946Y-132781015D01*
X158325946Y-132381015D02*
X158325946Y-132361015D01*
X158325946Y-131961015D02*
X158325946Y-131941015D01*
X158325946Y-131541015D02*
X158325946Y-131521015D01*
X158325946Y-131121015D02*
X158325946Y-131101015D01*
X158325946Y-130701015D02*
X158325946Y-130681015D01*
X158325946Y-130281015D02*
X158325946Y-130261015D01*
X158325946Y-129861015D02*
X158325946Y-129841015D01*
X158325946Y-129441015D02*
X158325946Y-129421015D01*
X158325946Y-129021015D02*
X158325946Y-129001015D01*
X158325946Y-128601015D02*
X158325946Y-128581015D01*
X158325946Y-128181015D02*
X158325946Y-128161015D01*
X158325946Y-127761015D02*
X158325946Y-127741015D01*
X158325946Y-127341015D02*
X158325946Y-127321015D01*
X158325946Y-126921015D02*
X158325946Y-126901015D01*
X158325946Y-126501015D02*
X158325946Y-126481015D01*
X158325946Y-126081015D02*
X158325946Y-126061015D01*
X158325946Y-125661015D02*
X158325946Y-125641015D01*
X158325946Y-125241015D02*
X158325946Y-125221015D01*
X158325946Y-124938450D02*
X158305946Y-124938450D01*
X157905946Y-124938450D02*
X157885946Y-124938450D01*
X157485946Y-124938450D02*
X157465946Y-124938450D01*
X157065946Y-124938450D02*
X157045946Y-124938450D01*
X156645946Y-124938450D02*
X156625946Y-124938450D01*
X156225946Y-124938450D02*
X156205946Y-124938450D01*
X155805946Y-124938450D02*
X155785946Y-124938450D01*
X155385946Y-124938450D02*
X155365946Y-124938450D01*
X154965946Y-124938450D02*
X154945946Y-124938450D01*
X154545946Y-124938450D02*
X154525946Y-124938450D01*
X154125946Y-124938450D02*
X154105946Y-124938450D01*
X153705946Y-124938450D02*
X153685946Y-124938450D01*
X153285946Y-124938450D02*
X153265946Y-124938450D01*
X152865946Y-124938450D02*
X152845946Y-124938450D01*
X152445946Y-124938450D02*
X152425946Y-124938450D01*
X152025946Y-124938450D02*
X152005946Y-124938450D01*
X151605946Y-124938450D02*
X151585946Y-124938450D01*
X151185946Y-124938450D02*
X151165946Y-124938450D01*
X150765946Y-124938450D02*
X150745946Y-124938450D01*
X150345946Y-124938450D02*
X150325946Y-124938450D01*
X150197946Y-124938450D02*
X150197946Y-124958450D01*
X150197946Y-125358450D02*
X150197946Y-125378450D01*
X150197946Y-125778450D02*
X150197946Y-125798450D01*
X150197946Y-126198450D02*
X150197946Y-126218450D01*
X150197946Y-126618450D02*
X150197946Y-126638450D01*
X150197946Y-127038450D02*
X150197946Y-127058450D01*
X150197946Y-127458450D02*
X150197946Y-127478450D01*
X150197946Y-127878450D02*
X150197946Y-127898450D01*
X150197946Y-128298450D02*
X150197946Y-128318450D01*
X150197946Y-128718450D02*
X150197946Y-128738450D01*
X150197946Y-129138450D02*
X150197946Y-129158450D01*
X150197946Y-129558450D02*
X150197946Y-129578450D01*
X150197946Y-129978450D02*
X150197946Y-129998450D01*
X150197946Y-130398450D02*
X150197946Y-130418450D01*
X150197946Y-130818450D02*
X150197946Y-130838450D01*
X150197946Y-131238450D02*
X150197946Y-131258450D01*
X150197946Y-131658450D02*
X150197946Y-131678450D01*
X150197946Y-132078450D02*
X150197946Y-132098450D01*
X150197946Y-132498450D02*
X150197946Y-132518450D01*
X150197946Y-132918450D02*
X150197946Y-132938450D01*
X150197946Y-133338450D02*
X150197946Y-133358450D01*
X150197946Y-133758450D02*
X150197946Y-133778450D01*
X150197946Y-134178450D02*
X150197946Y-134198450D01*
X150197946Y-134598450D02*
X150197946Y-134618450D01*
X150197946Y-135018450D02*
X150197946Y-135038450D01*
X150197946Y-135438450D02*
X150197946Y-135458450D01*
X150197946Y-135858450D02*
X150197946Y-135878450D01*
X150197946Y-136278450D02*
X150197946Y-136298450D01*
X150197946Y-136698450D02*
X150197946Y-136718450D01*
X150197946Y-137118450D02*
X150197946Y-137138450D01*
X150197946Y-137538450D02*
X150197946Y-137558450D01*
X150197946Y-137958450D02*
X150197946Y-137978450D01*
X150197946Y-138378450D02*
X150197946Y-138398450D01*
D13*
%TO.C,J3*%
X116501946Y-68353614D02*
X127401946Y-68353614D01*
X116501946Y-70073614D02*
X127401946Y-70073614D01*
X116501946Y-73173614D02*
X127401946Y-73173614D01*
X116501946Y-74173614D02*
X127401946Y-74173614D01*
X116501946Y-75093614D02*
X116501946Y-68353614D01*
X117841946Y-75093614D02*
X116501946Y-75093614D01*
X127401946Y-68353614D02*
X127401946Y-75093614D01*
X127401946Y-75093614D02*
X118441946Y-75093614D01*
X118581946Y-75703614D02*
X117701946Y-75703614D01*
X118141946Y-75093614D01*
X118581946Y-75703614D01*
G36*
X118581946Y-75703614D02*
G01*
X117701946Y-75703614D01*
X118141946Y-75093614D01*
X118581946Y-75703614D01*
G37*
%TO.C,J11*%
X188041946Y-102803614D02*
X197001946Y-102803614D01*
X188041946Y-109543614D02*
X188041946Y-102803614D01*
X197601946Y-102803614D02*
X198941946Y-102803614D01*
X198941946Y-102803614D02*
X198941946Y-109543614D01*
X198941946Y-103723614D02*
X188041946Y-103723614D01*
X198941946Y-104723614D02*
X188041946Y-104723614D01*
X198941946Y-107823614D02*
X188041946Y-107823614D01*
X198941946Y-109543614D02*
X188041946Y-109543614D01*
X197301946Y-102803614D02*
X196861946Y-102193614D01*
X197741946Y-102193614D01*
X197301946Y-102803614D01*
G36*
X197301946Y-102803614D02*
G01*
X196861946Y-102193614D01*
X197741946Y-102193614D01*
X197301946Y-102803614D01*
G37*
%TO.C,J1*%
X187081946Y-131803614D02*
X190961946Y-131803614D01*
X187081946Y-138543614D02*
X187081946Y-131803614D01*
X191561946Y-131803614D02*
X192901946Y-131803614D01*
X192901946Y-131803614D02*
X192901946Y-138543614D01*
X192901946Y-132723614D02*
X187081946Y-132723614D01*
X192901946Y-133723614D02*
X187081946Y-133723614D01*
X192901946Y-136823614D02*
X187081946Y-136823614D01*
X192901946Y-138543614D02*
X187081946Y-138543614D01*
X191261946Y-131803614D02*
X190821946Y-131193614D01*
X191701946Y-131193614D01*
X191261946Y-131803614D01*
G36*
X191261946Y-131803614D02*
G01*
X190821946Y-131193614D01*
X191701946Y-131193614D01*
X191261946Y-131803614D01*
G37*
%TO.C,U3*%
X95801946Y-75993614D02*
X95801946Y-81193614D01*
X95801946Y-81193614D02*
X97451946Y-81193614D01*
X99451946Y-81193614D02*
X101101946Y-81193614D01*
X101101946Y-75993614D02*
X95801946Y-75993614D01*
X101101946Y-81193614D02*
X101101946Y-75993614D01*
X97451946Y-81193614D02*
G75*
G02*
X99451946Y-81193614I1000000J0D01*
G01*
%TO.C,J16*%
X93001946Y-93103614D02*
X103901946Y-93103614D01*
X93001946Y-94823614D02*
X103901946Y-94823614D01*
X93001946Y-97923614D02*
X103901946Y-97923614D01*
X93001946Y-98923614D02*
X103901946Y-98923614D01*
X93001946Y-99843614D02*
X93001946Y-93103614D01*
X94341946Y-99843614D02*
X93001946Y-99843614D01*
X103901946Y-93103614D02*
X103901946Y-99843614D01*
X103901946Y-99843614D02*
X94941946Y-99843614D01*
X95081946Y-100453614D02*
X94201946Y-100453614D01*
X94641946Y-99843614D01*
X95081946Y-100453614D01*
G36*
X95081946Y-100453614D02*
G01*
X94201946Y-100453614D01*
X94641946Y-99843614D01*
X95081946Y-100453614D01*
G37*
%TO.C,J8*%
X116421946Y-60853614D02*
X129861946Y-60853614D01*
X116421946Y-62573614D02*
X129861946Y-62573614D01*
X116421946Y-65673614D02*
X129861946Y-65673614D01*
X116421946Y-66673614D02*
X129861946Y-66673614D01*
X116421946Y-67593614D02*
X116421946Y-60853614D01*
X117761946Y-67593614D02*
X116421946Y-67593614D01*
X129861946Y-60853614D02*
X129861946Y-67593614D01*
X129861946Y-67593614D02*
X118361946Y-67593614D01*
X118501946Y-68203614D02*
X117621946Y-68203614D01*
X118061946Y-67593614D01*
X118501946Y-68203614D01*
G36*
X118501946Y-68203614D02*
G01*
X117621946Y-68203614D01*
X118061946Y-67593614D01*
X118501946Y-68203614D01*
G37*
D12*
%TO.C,U1*%
X59261946Y-61993614D02*
X87261946Y-61993614D01*
X60761946Y-55493614D02*
X60761946Y-107493614D01*
X85761946Y-55493614D02*
X85761946Y-107493614D01*
X59261946Y-55493614D02*
X87261946Y-55493614D01*
X87261946Y-107493614D01*
X59261946Y-107493614D01*
X59261946Y-55493614D01*
D13*
%TO.C,J12*%
X188411946Y-93046114D02*
X197371946Y-93046114D01*
X188411946Y-99786114D02*
X188411946Y-93046114D01*
X197971946Y-93046114D02*
X199311946Y-93046114D01*
X199311946Y-93046114D02*
X199311946Y-99786114D01*
X199311946Y-93966114D02*
X188411946Y-93966114D01*
X199311946Y-94966114D02*
X188411946Y-94966114D01*
X199311946Y-98066114D02*
X188411946Y-98066114D01*
X199311946Y-99786114D02*
X188411946Y-99786114D01*
X197671946Y-93046114D02*
X197231946Y-92436114D01*
X198111946Y-92436114D01*
X197671946Y-93046114D01*
G36*
X197671946Y-93046114D02*
G01*
X197231946Y-92436114D01*
X198111946Y-92436114D01*
X197671946Y-93046114D01*
G37*
%TO.C,J13*%
X134641946Y-50153614D02*
X143001946Y-50153614D01*
X134641946Y-51873614D02*
X143001946Y-51873614D01*
X134641946Y-54973614D02*
X143001946Y-54973614D01*
X134641946Y-55973614D02*
X143001946Y-55973614D01*
X134641946Y-56893614D02*
X134641946Y-50153614D01*
X135981946Y-56893614D02*
X134641946Y-56893614D01*
X143001946Y-50153614D02*
X143001946Y-56893614D01*
X143001946Y-56893614D02*
X136581946Y-56893614D01*
X136721946Y-57503614D02*
X135841946Y-57503614D01*
X136281946Y-56893614D01*
X136721946Y-57503614D01*
G36*
X136721946Y-57503614D02*
G01*
X135841946Y-57503614D01*
X136281946Y-56893614D01*
X136721946Y-57503614D01*
G37*
%TO.C,J4*%
X116041946Y-116103614D02*
X129481946Y-116103614D01*
X116041946Y-117823614D02*
X129481946Y-117823614D01*
X116041946Y-120923614D02*
X129481946Y-120923614D01*
X116041946Y-121923614D02*
X129481946Y-121923614D01*
X116041946Y-122843614D02*
X116041946Y-116103614D01*
X117381946Y-122843614D02*
X116041946Y-122843614D01*
X129481946Y-116103614D02*
X129481946Y-122843614D01*
X129481946Y-122843614D02*
X117981946Y-122843614D01*
X118121946Y-123453614D02*
X117241946Y-123453614D01*
X117681946Y-122843614D01*
X118121946Y-123453614D01*
G36*
X118121946Y-123453614D02*
G01*
X117241946Y-123453614D01*
X117681946Y-122843614D01*
X118121946Y-123453614D01*
G37*
%TO.C,J17*%
X118081946Y-127353614D02*
X126441946Y-127353614D01*
X118081946Y-129073614D02*
X126441946Y-129073614D01*
X118081946Y-132173614D02*
X126441946Y-132173614D01*
X118081946Y-133173614D02*
X126441946Y-133173614D01*
X118081946Y-134093614D02*
X118081946Y-127353614D01*
X119421946Y-134093614D02*
X118081946Y-134093614D01*
X126441946Y-127353614D02*
X126441946Y-134093614D01*
X126441946Y-134093614D02*
X120021946Y-134093614D01*
X120161946Y-134703614D02*
X119281946Y-134703614D01*
X119721946Y-134093614D01*
X120161946Y-134703614D01*
G36*
X120161946Y-134703614D02*
G01*
X119281946Y-134703614D01*
X119721946Y-134093614D01*
X120161946Y-134703614D01*
G37*
%TO.C,U4*%
X95301946Y-82993614D02*
X95301946Y-88193614D01*
X95301946Y-88193614D02*
X96951946Y-88193614D01*
X98951946Y-88193614D02*
X100601946Y-88193614D01*
X100601946Y-82993614D02*
X95301946Y-82993614D01*
X100601946Y-88193614D02*
X100601946Y-82993614D01*
X96951946Y-88193614D02*
G75*
G02*
X98951946Y-88193614I1000000J0D01*
G01*
%TO.C,J5*%
X116501946Y-86143614D02*
X127401946Y-86143614D01*
X116501946Y-87863614D02*
X127401946Y-87863614D01*
X116501946Y-90963614D02*
X127401946Y-90963614D01*
X116501946Y-91963614D02*
X127401946Y-91963614D01*
X116501946Y-92883614D02*
X116501946Y-86143614D01*
X117841946Y-92883614D02*
X116501946Y-92883614D01*
X127401946Y-86143614D02*
X127401946Y-92883614D01*
X127401946Y-92883614D02*
X118441946Y-92883614D01*
X118581946Y-93493614D02*
X117701946Y-93493614D01*
X118141946Y-92883614D01*
X118581946Y-93493614D01*
G36*
X118581946Y-93493614D02*
G01*
X117701946Y-93493614D01*
X118141946Y-92883614D01*
X118581946Y-93493614D01*
G37*
%TO.C,J10*%
X189081946Y-81803614D02*
X195501946Y-81803614D01*
X189081946Y-88543614D02*
X189081946Y-81803614D01*
X196101946Y-81803614D02*
X197441946Y-81803614D01*
X197441946Y-81803614D02*
X197441946Y-88543614D01*
X197441946Y-82723614D02*
X189081946Y-82723614D01*
X197441946Y-83723614D02*
X189081946Y-83723614D01*
X197441946Y-86823614D02*
X189081946Y-86823614D01*
X197441946Y-88543614D02*
X189081946Y-88543614D01*
X195801946Y-81803614D02*
X195361946Y-81193614D01*
X196241946Y-81193614D01*
X195801946Y-81803614D01*
G36*
X195801946Y-81803614D02*
G01*
X195361946Y-81193614D01*
X196241946Y-81193614D01*
X195801946Y-81803614D01*
G37*
%TO.C,C2*%
X133032300Y-125448614D02*
X134032300Y-125448614D01*
X133532300Y-124948614D02*
X133532300Y-125948614D01*
X138511946Y-123243614D02*
X138511946Y-133403614D01*
X138551946Y-123243614D02*
X138551946Y-133403614D01*
X138591946Y-123244614D02*
X138591946Y-133402614D01*
X138631946Y-123244614D02*
X138631946Y-133402614D01*
X138671946Y-123246614D02*
X138671946Y-133400614D01*
X138711946Y-123247614D02*
X138711946Y-133399614D01*
X138751946Y-123249614D02*
X138751946Y-127283614D01*
X138751946Y-129363614D02*
X138751946Y-133397614D01*
X138791946Y-123251614D02*
X138791946Y-127283614D01*
X138791946Y-129363614D02*
X138791946Y-133395614D01*
X138831946Y-123253614D02*
X138831946Y-127283614D01*
X138831946Y-129363614D02*
X138831946Y-133393614D01*
X138871946Y-123256614D02*
X138871946Y-127283614D01*
X138871946Y-129363614D02*
X138871946Y-133390614D01*
X138911946Y-123259614D02*
X138911946Y-127283614D01*
X138911946Y-129363614D02*
X138911946Y-133387614D01*
X138951946Y-123262614D02*
X138951946Y-127283614D01*
X138951946Y-129363614D02*
X138951946Y-133384614D01*
X138991946Y-123266614D02*
X138991946Y-127283614D01*
X138991946Y-129363614D02*
X138991946Y-133380614D01*
X139031946Y-123269614D02*
X139031946Y-127283614D01*
X139031946Y-129363614D02*
X139031946Y-133377614D01*
X139071946Y-123274614D02*
X139071946Y-127283614D01*
X139071946Y-129363614D02*
X139071946Y-133372614D01*
X139111946Y-123278614D02*
X139111946Y-127283614D01*
X139111946Y-129363614D02*
X139111946Y-133368614D01*
X139151946Y-123283614D02*
X139151946Y-127283614D01*
X139151946Y-129363614D02*
X139151946Y-133363614D01*
X139191946Y-123288614D02*
X139191946Y-127283614D01*
X139191946Y-129363614D02*
X139191946Y-133358614D01*
X139231946Y-123294614D02*
X139231946Y-127283614D01*
X139231946Y-129363614D02*
X139231946Y-133352614D01*
X139271946Y-123300614D02*
X139271946Y-127283614D01*
X139271946Y-129363614D02*
X139271946Y-133346614D01*
X139311946Y-123306614D02*
X139311946Y-127283614D01*
X139311946Y-129363614D02*
X139311946Y-133340614D01*
X139351946Y-123312614D02*
X139351946Y-127283614D01*
X139351946Y-129363614D02*
X139351946Y-133334614D01*
X139391946Y-123319614D02*
X139391946Y-127283614D01*
X139391946Y-129363614D02*
X139391946Y-133327614D01*
X139431946Y-123326614D02*
X139431946Y-127283614D01*
X139431946Y-129363614D02*
X139431946Y-133320614D01*
X139471946Y-123334614D02*
X139471946Y-127283614D01*
X139471946Y-129363614D02*
X139471946Y-133312614D01*
X139511946Y-123342614D02*
X139511946Y-127283614D01*
X139511946Y-129363614D02*
X139511946Y-133304614D01*
X139551946Y-123350614D02*
X139551946Y-127283614D01*
X139551946Y-129363614D02*
X139551946Y-133296614D01*
X139591946Y-123358614D02*
X139591946Y-127283614D01*
X139591946Y-129363614D02*
X139591946Y-133288614D01*
X139631946Y-123367614D02*
X139631946Y-127283614D01*
X139631946Y-129363614D02*
X139631946Y-133279614D01*
X139671946Y-123376614D02*
X139671946Y-127283614D01*
X139671946Y-129363614D02*
X139671946Y-133270614D01*
X139711946Y-123386614D02*
X139711946Y-127283614D01*
X139711946Y-129363614D02*
X139711946Y-133260614D01*
X139751946Y-123395614D02*
X139751946Y-127283614D01*
X139751946Y-129363614D02*
X139751946Y-133251614D01*
X139791946Y-123406614D02*
X139791946Y-127283614D01*
X139791946Y-129363614D02*
X139791946Y-133240614D01*
X139831946Y-123416614D02*
X139831946Y-127283614D01*
X139831946Y-129363614D02*
X139831946Y-133230614D01*
X139871946Y-123427614D02*
X139871946Y-127283614D01*
X139871946Y-129363614D02*
X139871946Y-133219614D01*
X139911946Y-123438614D02*
X139911946Y-127283614D01*
X139911946Y-129363614D02*
X139911946Y-133208614D01*
X139951946Y-123450614D02*
X139951946Y-127283614D01*
X139951946Y-129363614D02*
X139951946Y-133196614D01*
X139991946Y-123462614D02*
X139991946Y-127283614D01*
X139991946Y-129363614D02*
X139991946Y-133184614D01*
X140031946Y-123474614D02*
X140031946Y-127283614D01*
X140031946Y-129363614D02*
X140031946Y-133172614D01*
X140071946Y-123486614D02*
X140071946Y-127283614D01*
X140071946Y-129363614D02*
X140071946Y-133160614D01*
X140111946Y-123499614D02*
X140111946Y-127283614D01*
X140111946Y-129363614D02*
X140111946Y-133147614D01*
X140151946Y-123513614D02*
X140151946Y-127283614D01*
X140151946Y-129363614D02*
X140151946Y-133133614D01*
X140191946Y-123526614D02*
X140191946Y-127283614D01*
X140191946Y-129363614D02*
X140191946Y-133120614D01*
X140231946Y-123541614D02*
X140231946Y-127283614D01*
X140231946Y-129363614D02*
X140231946Y-133105614D01*
X140271946Y-123555614D02*
X140271946Y-127283614D01*
X140271946Y-129363614D02*
X140271946Y-133091614D01*
X140311946Y-123570614D02*
X140311946Y-127283614D01*
X140311946Y-129363614D02*
X140311946Y-133076614D01*
X140351946Y-123585614D02*
X140351946Y-127283614D01*
X140351946Y-129363614D02*
X140351946Y-133061614D01*
X140391946Y-123601614D02*
X140391946Y-127283614D01*
X140391946Y-129363614D02*
X140391946Y-133045614D01*
X140431946Y-123617614D02*
X140431946Y-127283614D01*
X140431946Y-129363614D02*
X140431946Y-133029614D01*
X140471946Y-123633614D02*
X140471946Y-127283614D01*
X140471946Y-129363614D02*
X140471946Y-133013614D01*
X140511946Y-123650614D02*
X140511946Y-127283614D01*
X140511946Y-129363614D02*
X140511946Y-132996614D01*
X140551946Y-123667614D02*
X140551946Y-127283614D01*
X140551946Y-129363614D02*
X140551946Y-132979614D01*
X140591946Y-123685614D02*
X140591946Y-127283614D01*
X140591946Y-129363614D02*
X140591946Y-132961614D01*
X140631946Y-123703614D02*
X140631946Y-127283614D01*
X140631946Y-129363614D02*
X140631946Y-132943614D01*
X140671946Y-123721614D02*
X140671946Y-127283614D01*
X140671946Y-129363614D02*
X140671946Y-132925614D01*
X140711946Y-123740614D02*
X140711946Y-127283614D01*
X140711946Y-129363614D02*
X140711946Y-132906614D01*
X140751946Y-123759614D02*
X140751946Y-127283614D01*
X140751946Y-129363614D02*
X140751946Y-132887614D01*
X140791946Y-123779614D02*
X140791946Y-127283614D01*
X140791946Y-129363614D02*
X140791946Y-132867614D01*
X140831946Y-123799614D02*
X140831946Y-132847614D01*
X140871946Y-123819614D02*
X140871946Y-132827614D01*
X140911946Y-123840614D02*
X140911946Y-132806614D01*
X140951946Y-123862614D02*
X140951946Y-132784614D01*
X140991946Y-123884614D02*
X140991946Y-132762614D01*
X141031946Y-123906614D02*
X141031946Y-132740614D01*
X141071946Y-123929614D02*
X141071946Y-132717614D01*
X141111946Y-123952614D02*
X141111946Y-132694614D01*
X141151946Y-123976614D02*
X141151946Y-132670614D01*
X141191946Y-124000614D02*
X141191946Y-132646614D01*
X141231946Y-124025614D02*
X141231946Y-132621614D01*
X141271946Y-124051614D02*
X141271946Y-132595614D01*
X141311946Y-124076614D02*
X141311946Y-132570614D01*
X141351946Y-124103614D02*
X141351946Y-132543614D01*
X141391946Y-124130614D02*
X141391946Y-132516614D01*
X141431946Y-124157614D02*
X141431946Y-132489614D01*
X141471946Y-124185614D02*
X141471946Y-132461614D01*
X141511946Y-124214614D02*
X141511946Y-132432614D01*
X141551946Y-124243614D02*
X141551946Y-132403614D01*
X141591946Y-124273614D02*
X141591946Y-132373614D01*
X141631946Y-124303614D02*
X141631946Y-132343614D01*
X141671946Y-124335614D02*
X141671946Y-132311614D01*
X141711946Y-124366614D02*
X141711946Y-132280614D01*
X141751946Y-124399614D02*
X141751946Y-132247614D01*
X141791946Y-124432614D02*
X141791946Y-132214614D01*
X141831946Y-124465614D02*
X141831946Y-132181614D01*
X141871946Y-124500614D02*
X141871946Y-132146614D01*
X141911946Y-124535614D02*
X141911946Y-132111614D01*
X141951946Y-124571614D02*
X141951946Y-132075614D01*
X141991946Y-124607614D02*
X141991946Y-132039614D01*
X142031946Y-124645614D02*
X142031946Y-132001614D01*
X142071946Y-124683614D02*
X142071946Y-131963614D01*
X142111946Y-124722614D02*
X142111946Y-131924614D01*
X142151946Y-124762614D02*
X142151946Y-131884614D01*
X142191946Y-124803614D02*
X142191946Y-131843614D01*
X142231946Y-124845614D02*
X142231946Y-131801614D01*
X142271946Y-124888614D02*
X142271946Y-131758614D01*
X142311946Y-124932614D02*
X142311946Y-131714614D01*
X142351946Y-124976614D02*
X142351946Y-131670614D01*
X142391946Y-125022614D02*
X142391946Y-131624614D01*
X142431946Y-125069614D02*
X142431946Y-131577614D01*
X142471946Y-125118614D02*
X142471946Y-131528614D01*
X142511946Y-125167614D02*
X142511946Y-131479614D01*
X142551946Y-125218614D02*
X142551946Y-131428614D01*
X142591946Y-125270614D02*
X142591946Y-131376614D01*
X142631946Y-125323614D02*
X142631946Y-131323614D01*
X142671946Y-125378614D02*
X142671946Y-131268614D01*
X142711946Y-125435614D02*
X142711946Y-131211614D01*
X142751946Y-125493614D02*
X142751946Y-131153614D01*
X142791946Y-125553614D02*
X142791946Y-131093614D01*
X142831946Y-125615614D02*
X142831946Y-131031614D01*
X142871946Y-125679614D02*
X142871946Y-130967614D01*
X142911946Y-125745614D02*
X142911946Y-130901614D01*
X142951946Y-125813614D02*
X142951946Y-130833614D01*
X142991946Y-125884614D02*
X142991946Y-130762614D01*
X143031946Y-125958614D02*
X143031946Y-130688614D01*
X143071946Y-126035614D02*
X143071946Y-130611614D01*
X143111946Y-126115614D02*
X143111946Y-130531614D01*
X143151946Y-126199614D02*
X143151946Y-130447614D01*
X143191946Y-126286614D02*
X143191946Y-130360614D01*
X143231946Y-126379614D02*
X143231946Y-130267614D01*
X143271946Y-126477614D02*
X143271946Y-130169614D01*
X143311946Y-126581614D02*
X143311946Y-130065614D01*
X143351946Y-126693614D02*
X143351946Y-129953614D01*
X143391946Y-126814614D02*
X143391946Y-129832614D01*
X143431946Y-126946614D02*
X143431946Y-129700614D01*
X143471946Y-127093614D02*
X143471946Y-129553614D01*
X143511946Y-127261614D02*
X143511946Y-129385614D01*
X143551946Y-127461614D02*
X143551946Y-129185614D01*
X143591946Y-127724614D02*
X143591946Y-128922614D01*
X143631946Y-128323614D02*
G75*
G02*
X133391946Y-128323614I-5120000J0D01*
G01*
X133391946Y-128323614D02*
G75*
G02*
X143631946Y-128323614I5120000J0D01*
G01*
%TO.C,J2*%
X118759446Y-135418614D02*
X125499446Y-135418614D01*
X118759446Y-141238614D02*
X118759446Y-135418614D01*
X120479446Y-141238614D02*
X120479446Y-135418614D01*
X123579446Y-141238614D02*
X123579446Y-135418614D01*
X124579446Y-141238614D02*
X124579446Y-135418614D01*
X125499446Y-135418614D02*
X125499446Y-139298614D01*
X125499446Y-139898614D02*
X125499446Y-141238614D01*
X125499446Y-141238614D02*
X118759446Y-141238614D01*
X126109446Y-140038614D02*
X125499446Y-139598614D01*
X126109446Y-139158614D01*
X126109446Y-140038614D01*
G36*
X126109446Y-140038614D02*
G01*
X125499446Y-139598614D01*
X126109446Y-139158614D01*
X126109446Y-140038614D01*
G37*
%TO.C,J9*%
X189221946Y-71763614D02*
X195641946Y-71763614D01*
X189221946Y-78503614D02*
X189221946Y-71763614D01*
X196241946Y-71763614D02*
X197581946Y-71763614D01*
X197581946Y-71763614D02*
X197581946Y-78503614D01*
X197581946Y-72683614D02*
X189221946Y-72683614D01*
X197581946Y-73683614D02*
X189221946Y-73683614D01*
X197581946Y-76783614D02*
X189221946Y-76783614D01*
X197581946Y-78503614D02*
X189221946Y-78503614D01*
X195941946Y-71763614D02*
X195501946Y-71153614D01*
X196381946Y-71153614D01*
X195941946Y-71763614D01*
G36*
X195941946Y-71763614D02*
G01*
X195501946Y-71153614D01*
X196381946Y-71153614D01*
X195941946Y-71763614D01*
G37*
D12*
%TO.C,U5*%
X136961946Y-64823614D02*
X182961946Y-64823614D01*
X136961946Y-110723614D02*
X182961946Y-110723614D01*
X142061946Y-118223614D02*
X142061946Y-59723614D01*
X174961946Y-59723614D02*
X174961946Y-64823614D01*
X177761946Y-59723614D02*
X177761946Y-118123614D01*
X136961946Y-59723614D02*
X182961946Y-59723614D01*
X182961946Y-118123614D01*
X136961946Y-118123614D01*
X136961946Y-59723614D01*
D13*
%TO.C,J15*%
X188041946Y-120103614D02*
X198941946Y-120103614D01*
X188041946Y-121823614D02*
X198941946Y-121823614D01*
X188041946Y-124923614D02*
X198941946Y-124923614D01*
X188041946Y-125923614D02*
X198941946Y-125923614D01*
X188041946Y-126843614D02*
X188041946Y-120103614D01*
X189381946Y-126843614D02*
X188041946Y-126843614D01*
X198941946Y-120103614D02*
X198941946Y-126843614D01*
X198941946Y-126843614D02*
X189981946Y-126843614D01*
X190121946Y-127453614D02*
X189241946Y-127453614D01*
X189681946Y-126843614D01*
X190121946Y-127453614D01*
G36*
X190121946Y-127453614D02*
G01*
X189241946Y-127453614D01*
X189681946Y-126843614D01*
X190121946Y-127453614D01*
G37*
%TD*%
M02*
