%TF.GenerationSoftware,KiCad,Pcbnew,9.0.6*%
%TF.CreationDate,2026-09-15T03:16:13+05:30*%
%TF.ProjectId,sensor_board - Copy,73656e73-6f72-45f6-926f-617264202d20,rev?*%
%TF.SameCoordinates,Original*%
%TF.FileFunction,Soldermask,Bot*%
%TF.FilePolarity,Negative*%
%FSLAX46Y46*%
G04 Gerber Fmt 4.6, Leading zero omitted, Abs format (unit mm)*
G04 Created by KiCad (PCBNEW 9.0.6) date 2026-09-15 03:16:13*
%MOMM*%
%LPD*%
G01*
G04 APERTURE LIST*
G04 Aperture macros list*
%AMRoundRect*
0 Rectangle with rounded corners*
0 $1 Rounding radius*
0 $2 $3 $4 $5 $6 $7 $8 $9 X,Y pos of 4 corners*
0 Add a 4 corners polygon primitive as box body*
4,1,4,$2,$3,$4,$5,$6,$7,$8,$9,$2,$3,0*
0 Add four circle primitives for the rounded corners*
1,1,$1+$1,$2,$3*
1,1,$1+$1,$4,$5*
1,1,$1+$1,$6,$7*
1,1,$1+$1,$8,$9*
0 Add four rect primitives between the rounded corners*
20,1,$1+$1,$2,$3,$4,$5,0*
20,1,$1+$1,$4,$5,$6,$7,0*
20,1,$1+$1,$6,$7,$8,$9,0*
20,1,$1+$1,$8,$9,$2,$3,0*%
G04 Aperture macros list end*
%ADD10RoundRect,0.250000X-0.750000X-0.750000X0.750000X-0.750000X0.750000X0.750000X-0.750000X0.750000X0*%
%ADD11C,2.000000*%
%ADD12RoundRect,0.250000X0.550000X0.550000X-0.550000X0.550000X-0.550000X-0.550000X0.550000X-0.550000X0*%
%ADD13C,1.600000*%
%ADD14RoundRect,0.250000X-0.550000X-0.550000X0.550000X-0.550000X0.550000X0.550000X-0.550000X0.550000X0*%
%ADD15C,1.905000*%
%ADD16RoundRect,0.250000X0.750000X0.750000X-0.750000X0.750000X-0.750000X-0.750000X0.750000X-0.750000X0*%
%ADD17C,3.200000*%
%ADD18RoundRect,0.250000X0.750000X-0.750000X0.750000X0.750000X-0.750000X0.750000X-0.750000X-0.750000X0*%
%ADD19C,1.900000*%
%ADD20RoundRect,0.250001X-0.462499X-0.624999X0.462499X-0.624999X0.462499X0.624999X-0.462499X0.624999X0*%
%ADD21RoundRect,0.250000X0.400000X0.625000X-0.400000X0.625000X-0.400000X-0.625000X0.400000X-0.625000X0*%
%ADD22R,1.000000X1.500000*%
%ADD23R,1.500000X1.000000*%
G04 APERTURE END LIST*
%TO.C,JP3*%
G36*
X151461946Y-94073614D02*
G01*
X151761946Y-94073614D01*
X151761946Y-92573614D01*
X151461946Y-92573614D01*
X151461946Y-94073614D01*
G37*
%TO.C,JP8*%
G36*
X151661946Y-105823614D02*
G01*
X151361946Y-105823614D01*
X151361946Y-107323614D01*
X151661946Y-107323614D01*
X151661946Y-105823614D01*
G37*
%TO.C,JP4*%
G36*
X151761946Y-129573614D02*
G01*
X151461946Y-129573614D01*
X151461946Y-131073614D01*
X151761946Y-131073614D01*
X151761946Y-129573614D01*
G37*
%TO.C,JP5*%
G36*
X151411946Y-126573614D02*
G01*
X151111946Y-126573614D01*
X151111946Y-128073614D01*
X151411946Y-128073614D01*
X151411946Y-126573614D01*
G37*
%TO.C,JP11*%
G36*
X131511946Y-110773614D02*
G01*
X133011946Y-110773614D01*
X133011946Y-111073614D01*
X131511946Y-111073614D01*
X131511946Y-110773614D01*
G37*
%TO.C,JP9*%
G36*
X150761946Y-83073614D02*
G01*
X150461946Y-83073614D01*
X150461946Y-84573614D01*
X150761946Y-84573614D01*
X150761946Y-83073614D01*
G37*
%TO.C,JP1*%
G36*
X166911946Y-67573614D02*
G01*
X166611946Y-67573614D01*
X166611946Y-69073614D01*
X166911946Y-69073614D01*
X166911946Y-67573614D01*
G37*
%TO.C,JP6*%
G36*
X93911946Y-121573614D02*
G01*
X93611946Y-121573614D01*
X93611946Y-123073614D01*
X93911946Y-123073614D01*
X93911946Y-121573614D01*
G37*
%TO.C,JP10*%
G36*
X150761946Y-86073614D02*
G01*
X150461946Y-86073614D01*
X150461946Y-87573614D01*
X150761946Y-87573614D01*
X150761946Y-86073614D01*
G37*
%TO.C,JP2*%
G36*
X168261946Y-57573614D02*
G01*
X167961946Y-57573614D01*
X167961946Y-59073614D01*
X168261946Y-59073614D01*
X168261946Y-57573614D01*
G37*
%TO.C,JP13*%
G36*
X78211946Y-93573614D02*
G01*
X78511946Y-93573614D01*
X78511946Y-92073614D01*
X78211946Y-92073614D01*
X78211946Y-93573614D01*
G37*
%TO.C,JP12*%
G36*
X150961946Y-103073614D02*
G01*
X151261946Y-103073614D01*
X151261946Y-101573614D01*
X150961946Y-101573614D01*
X150961946Y-103073614D01*
G37*
%TO.C,JP7*%
G36*
X93761946Y-125573614D02*
G01*
X93461946Y-125573614D01*
X93461946Y-127073614D01*
X93761946Y-127073614D01*
X93761946Y-125573614D01*
G37*
%TD*%
D10*
%TO.C,J14*%
X190721946Y-66323614D03*
D11*
X193261946Y-66323614D03*
X195801946Y-66323614D03*
%TD*%
D12*
%TO.C,U2*%
X102566946Y-73098614D03*
D13*
X102566946Y-70558614D03*
X94946946Y-70558614D03*
X94946946Y-73098614D03*
%TD*%
D14*
%TO.C,C1*%
X137144269Y-138823614D03*
D13*
X139644269Y-138823614D03*
%TD*%
D15*
%TO.C,MP1_5*%
X167157946Y-140594614D03*
X169697946Y-140594614D03*
X177825946Y-140594614D03*
X180365946Y-140594614D03*
X167157946Y-122052614D03*
X169697946Y-122052614D03*
X177825946Y-122052614D03*
X180365946Y-122052614D03*
%TD*%
D10*
%TO.C,J7*%
X117681946Y-110573614D03*
D11*
X120221946Y-110573614D03*
X122761946Y-110573614D03*
X125301946Y-110573614D03*
X127841946Y-110573614D03*
%TD*%
D10*
%TO.C,J6*%
X118471946Y-81823614D03*
D11*
X121011946Y-81823614D03*
X123551946Y-81823614D03*
X126091946Y-81823614D03*
%TD*%
D15*
%TO.C,MP2_3.3*%
X147657946Y-141094614D03*
X150197946Y-141094614D03*
X158325946Y-141094614D03*
X160865946Y-141094614D03*
X147657946Y-122552614D03*
X150197946Y-122552614D03*
X158325946Y-122552614D03*
X160865946Y-122552614D03*
%TD*%
D10*
%TO.C,J3*%
X118141946Y-71573614D03*
D11*
X120681946Y-71573614D03*
X123221946Y-71573614D03*
X125761946Y-71573614D03*
%TD*%
D16*
%TO.C,J11*%
X197301946Y-106323614D03*
D11*
X194761946Y-106323614D03*
X192221946Y-106323614D03*
X189681946Y-106323614D03*
%TD*%
D16*
%TO.C,J1*%
X191261946Y-135323614D03*
D11*
X188721946Y-135323614D03*
%TD*%
D12*
%TO.C,U3*%
X102261946Y-79863614D03*
D13*
X102261946Y-77323614D03*
X94641946Y-77323614D03*
X94641946Y-79863614D03*
%TD*%
D17*
%TO.C,*%
X59020357Y-142690908D03*
%TD*%
D10*
%TO.C,J16*%
X94641946Y-96323614D03*
D11*
X97181946Y-96323614D03*
X99721946Y-96323614D03*
X102261946Y-96323614D03*
%TD*%
D10*
%TO.C,J8*%
X118061946Y-64073614D03*
D11*
X120601946Y-64073614D03*
X123141946Y-64073614D03*
X125681946Y-64073614D03*
X128221946Y-64073614D03*
%TD*%
D15*
%TO.C,U1*%
X60761946Y-61993614D03*
X60761946Y-64533614D03*
X60761946Y-67073614D03*
X60761946Y-69613614D03*
X60761946Y-72153614D03*
X60761946Y-74693614D03*
X60761946Y-77233614D03*
X60761946Y-79773614D03*
X60761946Y-82313614D03*
X60761946Y-84853614D03*
X60761946Y-87393614D03*
X60761946Y-89933614D03*
X60761946Y-92473614D03*
X60761946Y-95013614D03*
X60761946Y-97553614D03*
X85761946Y-97553614D03*
X85761946Y-95013614D03*
X85761946Y-92473614D03*
X85761946Y-89933614D03*
X85761946Y-87393614D03*
X85761946Y-84853614D03*
X85761946Y-82313614D03*
X85761946Y-79773614D03*
X85761946Y-77233614D03*
X85761946Y-74693614D03*
X85761946Y-72153614D03*
X85761946Y-69613614D03*
X85761946Y-67073614D03*
X85761946Y-64533614D03*
X85761946Y-61993614D03*
%TD*%
D16*
%TO.C,J12*%
X197671946Y-96566114D03*
D11*
X195131946Y-96566114D03*
X192591946Y-96566114D03*
X190051946Y-96566114D03*
%TD*%
D10*
%TO.C,J13*%
X136281946Y-53373614D03*
D11*
X138821946Y-53373614D03*
X141361946Y-53373614D03*
%TD*%
D10*
%TO.C,J4*%
X117681946Y-119323614D03*
D11*
X120221946Y-119323614D03*
X122761946Y-119323614D03*
X125301946Y-119323614D03*
X127841946Y-119323614D03*
%TD*%
D17*
%TO.C,REF\u002A\u002A*%
X199020357Y-52690908D03*
%TD*%
%TO.C,*%
X199020357Y-142690908D03*
%TD*%
D10*
%TO.C,J17*%
X119721946Y-130573614D03*
D11*
X122261946Y-130573614D03*
X124801946Y-130573614D03*
%TD*%
D12*
%TO.C,U4*%
X101761946Y-86863614D03*
D13*
X101761946Y-84323614D03*
X94141946Y-84323614D03*
X94141946Y-86863614D03*
%TD*%
D10*
%TO.C,J5*%
X118141946Y-89363614D03*
D11*
X120681946Y-89363614D03*
X123221946Y-89363614D03*
X125761946Y-89363614D03*
%TD*%
D16*
%TO.C,J10*%
X195801946Y-85323614D03*
D11*
X193261946Y-85323614D03*
X190721946Y-85323614D03*
%TD*%
D14*
%TO.C,C2*%
X137261946Y-128323614D03*
D13*
X139761946Y-128323614D03*
%TD*%
D18*
%TO.C,J2*%
X121979446Y-139598614D03*
D11*
X121979446Y-137058614D03*
%TD*%
D16*
%TO.C,J9*%
X195941946Y-75283614D03*
D11*
X193401946Y-75283614D03*
X190861946Y-75283614D03*
%TD*%
D19*
%TO.C,U5*%
X139521946Y-72623614D03*
X142061946Y-72623614D03*
X139521946Y-75163614D03*
X142061946Y-75163614D03*
X139521946Y-77703614D03*
X142061946Y-77703614D03*
X139521946Y-80243614D03*
X142061946Y-80243614D03*
X139521946Y-82783614D03*
X142061946Y-82783614D03*
X139521946Y-85323614D03*
X142061946Y-85323614D03*
X139521946Y-87863614D03*
X142061946Y-87863614D03*
X139521946Y-90403614D03*
X142061946Y-90403614D03*
X139521946Y-92943614D03*
X142061946Y-92943614D03*
X139521946Y-95483614D03*
X142061946Y-95483614D03*
X139521946Y-98023614D03*
X142061946Y-98023614D03*
X139521946Y-100563614D03*
X142061946Y-100563614D03*
X139521946Y-103103614D03*
X142061946Y-103103614D03*
X139521946Y-105643614D03*
X142061946Y-105643614D03*
X139521946Y-108183614D03*
X142061946Y-108183614D03*
X139521946Y-110723614D03*
X142061946Y-110723614D03*
X177761946Y-67543614D03*
X180301946Y-67543614D03*
X177761946Y-70083614D03*
X180301946Y-70083614D03*
X177761946Y-72623614D03*
X180301946Y-72623614D03*
X177761946Y-75163614D03*
X180301946Y-75163614D03*
X177761946Y-77703614D03*
X180301946Y-77703614D03*
X177761946Y-80243614D03*
X180301946Y-80243614D03*
X177761946Y-82783614D03*
X180301946Y-82783614D03*
X177761946Y-85323614D03*
X180301946Y-85323614D03*
X177761946Y-87863614D03*
X180301946Y-87863614D03*
X177761946Y-90403614D03*
X180301946Y-90403614D03*
X177761946Y-92943614D03*
X180301946Y-92943614D03*
X177761946Y-95483614D03*
X180301946Y-95483614D03*
X177761946Y-98023614D03*
X180301946Y-98023614D03*
X177761946Y-100563614D03*
X180301946Y-100563614D03*
X177761946Y-103103614D03*
X180301946Y-103103614D03*
X177761946Y-105643614D03*
X180301946Y-105643614D03*
X177761946Y-108183614D03*
X180301946Y-108183614D03*
X177761946Y-110723614D03*
X180301946Y-110723614D03*
X147021946Y-62283614D03*
X147021946Y-64823614D03*
X149561946Y-62283614D03*
X149561946Y-64823614D03*
X152101946Y-62283614D03*
X152101946Y-64823614D03*
X154641946Y-62283614D03*
X154641946Y-64823614D03*
X157181946Y-62283614D03*
X157181946Y-64823614D03*
X159721946Y-62283614D03*
X159721946Y-64823614D03*
X162261946Y-62283614D03*
X162261946Y-64823614D03*
X164801946Y-62283614D03*
X164801946Y-64823614D03*
X167341946Y-62283614D03*
X167341946Y-64823614D03*
X169881946Y-62283614D03*
X169881946Y-64823614D03*
X172421946Y-62283614D03*
X172421946Y-64823614D03*
X174961946Y-62283614D03*
X174961946Y-64823614D03*
%TD*%
D17*
%TO.C,REF\u002A\u002A*%
X59020357Y-52690908D03*
%TD*%
D10*
%TO.C,J15*%
X189681946Y-123323614D03*
D11*
X192221946Y-123323614D03*
X194761946Y-123323614D03*
X197301946Y-123323614D03*
%TD*%
D20*
%TO.C,D8*%
X59999446Y-122573614D03*
X62974446Y-122573614D03*
%TD*%
%TO.C,D6*%
X59999446Y-126323614D03*
X62974446Y-126323614D03*
%TD*%
D21*
%TO.C,R12*%
X69011946Y-109073614D03*
X65911946Y-109073614D03*
%TD*%
%TO.C,R3*%
X112311946Y-86068614D03*
X109211946Y-86068614D03*
%TD*%
D20*
%TO.C,D4*%
X59999446Y-129823614D03*
X62974446Y-129823614D03*
%TD*%
D21*
%TO.C,R10*%
X69011946Y-112573614D03*
X65911946Y-112573614D03*
%TD*%
D22*
%TO.C,JP3*%
X150961946Y-93323614D03*
X152261946Y-93323614D03*
%TD*%
%TO.C,JP8*%
X152161946Y-106573614D03*
X150861946Y-106573614D03*
%TD*%
D20*
%TO.C,D1*%
X59749446Y-137823614D03*
X62724446Y-137823614D03*
%TD*%
D21*
%TO.C,R8*%
X69011946Y-115573614D03*
X65911946Y-115573614D03*
%TD*%
D22*
%TO.C,JP4*%
X152261946Y-130323614D03*
X150961946Y-130323614D03*
%TD*%
D21*
%TO.C,R11*%
X69011946Y-122573614D03*
X65911946Y-122573614D03*
%TD*%
%TO.C,R2*%
X112311946Y-78823614D03*
X109211946Y-78823614D03*
%TD*%
%TO.C,R4*%
X68761946Y-137823614D03*
X65661946Y-137823614D03*
%TD*%
D22*
%TO.C,JP5*%
X151911946Y-127323614D03*
X150611946Y-127323614D03*
%TD*%
D21*
%TO.C,R9*%
X69011946Y-126323614D03*
X65911946Y-126323614D03*
%TD*%
D20*
%TO.C,D9*%
X59961946Y-109073614D03*
X62936946Y-109073614D03*
%TD*%
D21*
%TO.C,R7*%
X69011946Y-129823614D03*
X65911946Y-129823614D03*
%TD*%
D20*
%TO.C,D2*%
X59761946Y-133573614D03*
X62736946Y-133573614D03*
%TD*%
D21*
%TO.C,R6*%
X69011946Y-119073614D03*
X65911946Y-119073614D03*
%TD*%
D23*
%TO.C,JP11*%
X132261946Y-110273614D03*
X132261946Y-111573614D03*
%TD*%
D22*
%TO.C,JP9*%
X151261946Y-83823614D03*
X149961946Y-83823614D03*
%TD*%
%TO.C,JP1*%
X167411946Y-68323614D03*
X166111946Y-68323614D03*
%TD*%
%TO.C,JP6*%
X94411946Y-122323614D03*
X93111946Y-122323614D03*
%TD*%
D20*
%TO.C,D7*%
X59999446Y-112573614D03*
X62974446Y-112573614D03*
%TD*%
D21*
%TO.C,R1*%
X112811946Y-73323614D03*
X109711946Y-73323614D03*
%TD*%
D20*
%TO.C,D3*%
X59999446Y-119073614D03*
X62974446Y-119073614D03*
%TD*%
D22*
%TO.C,JP10*%
X151261946Y-86823614D03*
X149961946Y-86823614D03*
%TD*%
%TO.C,JP2*%
X168761946Y-58323614D03*
X167461946Y-58323614D03*
%TD*%
%TO.C,JP13*%
X77711946Y-92823614D03*
X79011946Y-92823614D03*
%TD*%
%TO.C,JP12*%
X150461946Y-102323614D03*
X151761946Y-102323614D03*
%TD*%
D20*
%TO.C,D5*%
X59999446Y-115573614D03*
X62974446Y-115573614D03*
%TD*%
D21*
%TO.C,R5*%
X68774446Y-133573614D03*
X65674446Y-133573614D03*
%TD*%
D22*
%TO.C,JP7*%
X94261946Y-126323614D03*
X92961946Y-126323614D03*
%TD*%
M02*
